<?xml version="1.0" encoding="UTF-8" standalone="no"?>
<!-- Created with Inkscape (http://www.inkscape.org/) -->

<svg
   xmlns:dc="http://purl.org/dc/elements/1.1/"
   xmlns:cc="http://creativecommons.org/ns#"
   xmlns:rdf="http://www.w3.org/1999/02/22-rdf-syntax-ns#"
   xmlns:svg="http://www.w3.org/2000/svg"
   xmlns="http://www.w3.org/2000/svg"
   xmlns:xlink="http://www.w3.org/1999/xlink"
   xmlns:sodipodi="http://sodipodi.sourceforge.net/DTD/sodipodi-0.dtd"
   xmlns:inkscape="http://www.inkscape.org/namespaces/inkscape"
   width="128"
   height="128"
   id="svg2"
   version="1.1"
   inkscape:version="0.48.3.1 r9886"
   sodipodi:docname="file-icon.svg">
  <defs
     id="defs4">
    <linearGradient
       inkscape:collect="always"
       id="linearGradient3608">
      <stop
         style="stop-color:#cccccc;stop-opacity:1"
         offset="0"
         id="stop3610" />
      <stop
         id="stop3616"
         offset="0.22007781"
         style="stop-color:#e6e6e6;stop-opacity:1" />
      <stop
         style="stop-color:#ffffff;stop-opacity:1"
         offset="0.46932641"
         id="stop3618" />
      <stop
         style="stop-color:#e6e6e6;stop-opacity:1"
         offset="1"
         id="stop3612" />
    </linearGradient>
    <linearGradient
       inkscape:collect="always"
       id="linearGradient3600">
      <stop
         style="stop-color:#e6e6e6;stop-opacity:1;"
         offset="0"
         id="stop3602" />
      <stop
         style="stop-color:#f9f9f9;stop-opacity:1"
         offset="1"
         id="stop3604" />
    </linearGradient>
    <linearGradient
       inkscape:collect="always"
       xlink:href="#linearGradient3600"
       id="linearGradient3606"
       x1="105"
       y1="123"
       x2="-80"
       y2="-112"
       gradientUnits="userSpaceOnUse"
       gradientTransform="translate(2,922.36218)" />
    <linearGradient
       inkscape:collect="always"
       xlink:href="#linearGradient3608"
       id="linearGradient3614"
       x1="93"
       y1="944.36218"
       x2="80"
       y2="957.36218"
       gradientUnits="userSpaceOnUse"
       gradientTransform="translate(2,-2)" />
    <radialGradient
       id="SVGID_3_"
       cx="191.01511"
       cy="76.567398"
       r="72.693398"
       gradientUnits="userSpaceOnUse">
      <stop
         offset="0"
         style="stop-color:#FFFFFF;stop-opacity:0.71"
         id="stop76" />
      <stop
         offset="0.2961"
         style="stop-color:#FCFEFF;stop-opacity:0.713"
         id="stop78" />
      <stop
         offset="0.4954"
         style="stop-color:#F3F9FF;stop-opacity:0.715"
         id="stop80" />
      <stop
         offset="0.6662"
         style="stop-color:#E4F2FF;stop-opacity:0.7167"
         id="stop82" />
      <stop
         offset="0.8211"
         style="stop-color:#CFE7FF;stop-opacity:0.7182"
         id="stop84" />
      <stop
         offset="0.9637"
         style="stop-color:#B3DAFF;stop-opacity:0.7196"
         id="stop86" />
      <stop
         offset="1"
         style="stop-color:#ABD6FF;stop-opacity:0.72"
         id="stop88" />
    </radialGradient>
    <linearGradient
       id="SVGID_4_"
       gradientUnits="userSpaceOnUse"
       x1="86.786102"
       y1="64.370102"
       x2="296.29819"
       y2="79.020599">
      <stop
         offset="0"
         style="stop-color:#8B8E90"
         id="stop97" />
      <stop
         offset="0.33"
         style="stop-color:#E0E0DF"
         id="stop99" />
      <stop
         offset="1"
         style="stop-color:#757777"
         id="stop101" />
    </linearGradient>
    <linearGradient
       id="SVGID_5_"
       gradientUnits="userSpaceOnUse"
       x1="118.6665"
       y1="136.65331"
       x2="130.6313"
       y2="147.8107">
      <stop
         offset="0"
         style="stop-color:#A7AAAB"
         id="stop106" />
      <stop
         offset="0.24"
         style="stop-color:#FFFFFF"
         id="stop108" />
      <stop
         offset="0.37"
         style="stop-color:#EFEEED"
         id="stop110" />
      <stop
         offset="0.45"
         style="stop-color:#8B8E90"
         id="stop112" />
      <stop
         offset="0.82"
         style="stop-color:#5A5D5E"
         id="stop114" />
      <stop
         offset="0.9"
         style="stop-color:#E0E0DF"
         id="stop116" />
      <stop
         offset="1"
         style="stop-color:#A7AAAB"
         id="stop118" />
    </linearGradient>
    <linearGradient
       id="SVGID_6_"
       gradientUnits="userSpaceOnUse"
       x1="109.936"
       y1="142.2832"
       x2="125.5304"
       y2="156.8252">
      <stop
         offset="0"
         style="stop-color:#A7AAAB"
         id="stop125" />
      <stop
         offset="0.24"
         style="stop-color:#FFFFFF"
         id="stop127" />
      <stop
         offset="0.37"
         style="stop-color:#EFEEED"
         id="stop129" />
      <stop
         offset="0.45"
         style="stop-color:#8B8E90"
         id="stop131" />
      <stop
         offset="0.82"
         style="stop-color:#5A5D5E"
         id="stop133" />
      <stop
         offset="0.9"
         style="stop-color:#E0E0DF"
         id="stop135" />
      <stop
         offset="1"
         style="stop-color:#A7AAAB"
         id="stop137" />
    </linearGradient>
    <linearGradient
       id="SVGID_7_"
       gradientUnits="userSpaceOnUse"
       x1="70.9561"
       y1="207.4912"
       x2="57.318501"
       y2="194.32159">
      <stop
         offset="0"
         style="stop-color:#000000"
         id="stop142" />
      <stop
         offset="0.2007"
         style="stop-color:#5A5D5E"
         id="stop144" />
      <stop
         offset="0.4803"
         style="stop-color:#000000"
         id="stop146" />
      <stop
         offset="0.7563"
         style="stop-color:#E0E0DF"
         id="stop148" />
      <stop
         offset="1"
         style="stop-color:#000000"
         id="stop150" />
    </linearGradient>
    <linearGradient
       id="SVGID_8_"
       gradientUnits="userSpaceOnUse"
       x1="105.6069"
       y1="142.99409"
       x2="126.1221"
       y2="162.12489">
      <stop
         offset="0"
         style="stop-color:#5A5D5E"
         id="stop157" />
      <stop
         offset="1"
         style="stop-color:#000000"
         id="stop159" />
    </linearGradient>
    <linearGradient
       id="SVGID_9_"
       gradientUnits="userSpaceOnUse"
       x1="128.4966"
       y1="122.7705"
       x2="144.341"
       y2="137.54559">
      <stop
         offset="0"
         style="stop-color:#A7AAAB"
         id="stop164" />
      <stop
         offset="0.24"
         style="stop-color:#FFFFFF"
         id="stop166" />
      <stop
         offset="0.37"
         style="stop-color:#EFEEED"
         id="stop168" />
      <stop
         offset="0.45"
         style="stop-color:#8B8E90"
         id="stop170" />
      <stop
         offset="0.82"
         style="stop-color:#5A5D5E"
         id="stop172" />
      <stop
         offset="0.9"
         style="stop-color:#E0E0DF"
         id="stop174" />
      <stop
         offset="1"
         style="stop-color:#A7AAAB"
         id="stop176" />
    </linearGradient>
    <linearGradient
       id="SVGID_10_"
       gradientUnits="userSpaceOnUse"
       x1="131.0063"
       y1="45.423801"
       x2="165.64999"
       y2="60.221802">
      <stop
         offset="0"
         style="stop-color:#FFFFFF;stop-opacity:0.71"
         id="stop197" />
      <stop
         offset="0.875"
         style="stop-color:#FFFFFF;stop-opacity:0.2025"
         id="stop199" />
      <stop
         offset="1"
         style="stop-color:#FFFFFF;stop-opacity:0.13"
         id="stop201" />
    </linearGradient>
    <radialGradient
       id="SVGID_11_"
       cx="203.8862"
       cy="69.25"
       r="51.760101"
       gradientTransform="matrix(-0.6607,-0.722,0.7377,-0.6751,297.2191,275.3679)"
       gradientUnits="userSpaceOnUse">
      <stop
         offset="0"
         style="stop-color:#FFFFFF"
         id="stop206" />
      <stop
         offset="0.8648"
         style="stop-color:#FFFFFF;stop-opacity:0.3773"
         id="stop208" />
      <stop
         offset="1"
         style="stop-color:#FFFFFF;stop-opacity:0.28"
         id="stop210" />
    </radialGradient>
    <radialGradient
       r="51.760101"
       cy="69.25"
       cx="203.8862"
       gradientTransform="matrix(-0.6607,-0.722,0.7377,-0.6751,297.2191,275.3679)"
       gradientUnits="userSpaceOnUse"
       id="radialGradient3476"
       xlink:href="#SVGID_11_"
       inkscape:collect="always" />
  </defs>
  <sodipodi:namedview
     id="base"
     pagecolor="#ffffff"
     bordercolor="#666666"
     borderopacity="1.0"
     inkscape:pageopacity="0.0"
     inkscape:pageshadow="2"
     inkscape:zoom="7.0625"
     inkscape:cx="64"
     inkscape:cy="67.385508"
     inkscape:document-units="px"
     inkscape:current-layer="layer1"
     showgrid="true"
     inkscape:window-width="1920"
     inkscape:window-height="1121"
     inkscape:window-x="0"
     inkscape:window-y="25"
     inkscape:window-maximized="1">
    <inkscape:grid
       type="xygrid"
       id="grid2816"
       empspacing="5"
       visible="true"
       enabled="true"
       snapvisiblegridlinesonly="true" />
  </sodipodi:namedview>
  <metadata
     id="metadata7">
    <rdf:RDF>
      <cc:Work
         rdf:about="">
        <dc:format>image/svg+xml</dc:format>
        <dc:type
           rdf:resource="http://purl.org/dc/dcmitype/StillImage" />
        <dc:title></dc:title>
      </cc:Work>
    </rdf:RDF>
  </metadata>
  <g
     inkscape:label="Layer 1"
     inkscape:groupmode="layer"
     id="layer1"
     transform="translate(0,-924.36218)">
    <path
       style="fill:url(#linearGradient3606);fill-opacity:1;fill-rule:evenodd;stroke:#808080;stroke-width:1px;stroke-linecap:butt;stroke-linejoin:round;stroke-opacity:1"
       d="m 82,930.36218 -60,0 0,115.00002 85,0 0,-90.00002 -25,-25 z"
       id="path2826"
       sodipodi:nodetypes="cccccc" />
    <path
       style="fill:url(#linearGradient3614);fill-opacity:1;fill-rule:evenodd;stroke:#808080;stroke-width:1px;stroke-linecap:butt;stroke-linejoin:round;stroke-opacity:1"
       d="m 107,955.36218 -25,-25 c 1.863343,8.33333 2.132867,16.66667 0,25 9.905529,-1.93501 17.12777,-0.56751 25,0 z"
       id="rect2822"
       sodipodi:nodetypes="cccc" />
    <text
       xml:space="preserve"
       style="font-size:6px;font-style:normal;font-weight:normal;line-height:125%;letter-spacing:0px;word-spacing:0px;fill:#000000;fill-opacity:1;stroke:none;font-family:Sans"
       x="24.292036"
       y="933.77814"
       id="text3204"
       sodipodi:linespacing="125%"><tspan
         sodipodi:role="line"
         id="tspan3206"
         x="24.292036"
         y="933.77814"
         style="font-size:2px"><tspan
   style="fill:#800080"
   id="tspan3294">import</tspan> subprocess, os</tspan><tspan
         sodipodi:role="line"
         x="24.292036"
         y="936.27814"
         id="tspan3208"
         style="font-size:2px" /><tspan
         sodipodi:role="line"
         x="24.292036"
         y="938.77814"
         id="tspan3210"
         style="font-size:2px"><tspan
   style="fill:#aa0000"
   id="tspan3298">class</tspan> NoResultsException(Exception):</tspan><tspan
         sodipodi:role="line"
         x="24.292036"
         y="941.27814"
         id="tspan3212"
         style="font-size:2px;fill:#aa0000">    pass</tspan><tspan
         sodipodi:role="line"
         x="24.292036"
         y="943.77814"
         id="tspan3214"
         style="font-size:2px" /><tspan
         sodipodi:role="line"
         x="24.292036"
         y="946.27814"
         id="tspan3216"
         style="font-size:2px"><tspan
   style="fill:#aa0000"
   id="tspan3300">class</tspan> BadPathException(Exception):</tspan><tspan
         sodipodi:role="line"
         x="24.292036"
         y="948.77814"
         id="tspan3218"
         style="font-size:2px;fill:#aa0000">    pass</tspan><tspan
         sodipodi:role="line"
         x="24.292036"
         y="951.27814"
         id="tspan3220"
         style="font-size:2px" /><tspan
         sodipodi:role="line"
         x="24.292036"
         y="953.77814"
         id="tspan3222"
         style="font-size:2px"><tspan
   style="fill:#aa0000"
   id="tspan3304">class</tspan> GrepEngine:</tspan><tspan
         sodipodi:role="line"
         x="24.292036"
         y="956.27814"
         id="tspan3224"
         style="font-size:2px"><tspan
   style="fill:#aa0000"
   id="tspan3306">    def</tspan> __init__(<tspan
   style="fill:#008080"
   id="tspan3378">self</tspan>):</tspan><tspan
         sodipodi:role="line"
         x="24.292036"
         y="958.77814"
         id="tspan3226"
         style="font-size:2px"><tspan
   style="fill:#008080"
   id="tspan3380">        self</tspan>.exclude_dirs = []</tspan><tspan
         sodipodi:role="line"
         x="24.292036"
         y="961.27814"
         id="tspan3228"
         style="font-size:2px"><tspan
   style="fill:#008080"
   id="tspan3382">        self</tspan>.exclude_files = []</tspan><tspan
         sodipodi:role="line"
         x="24.292036"
         y="963.77814"
         id="tspan3230"
         style="font-size:2px"> </tspan><tspan
         sodipodi:role="line"
         x="24.292036"
         y="966.27814"
         id="tspan3232"
         style="font-size:2px"><tspan
   style="fill:#aa0000"
   id="tspan3308">    def</tspan> grep(<tspan
   style="fill:#008080"
   id="tspan3384">self</tspan>, string, path, max_matches, case_sensitive):</tspan><tspan
         sodipodi:role="line"
         x="24.292036"
         y="968.77814"
         id="tspan3234"
         style="font-size:2px"><tspan
   style="fill:#aa0000"
   id="tspan3310">        try</tspan>:</tspan><tspan
         sodipodi:role="line"
         x="24.292036"
         y="971.27814"
         id="tspan3236"
         style="font-size:2px"><tspan
   style="fill:#aa0000"
   id="tspan3312">            if</tspan> case_sensitive: case_arg = <tspan
   style="fill:#ff00ff"
   id="tspan3372">''</tspan></tspan><tspan
         sodipodi:role="line"
         x="24.292036"
         y="973.77814"
         id="tspan3238"
         style="font-size:2px"><tspan
   style="fill:#aa0000"
   id="tspan3314">            else</tspan>: case_arg = 'i'</tspan><tspan
         sodipodi:role="line"
         x="24.292036"
         y="976.27814"
         id="tspan3240"
         style="font-size:2px">            </tspan><tspan
         sodipodi:role="line"
         x="24.292036"
         y="978.77814"
         id="tspan3242"
         style="font-size:2px">            args = '<tspan
   style="fill:#ff00ff"
   id="tspan3370">-Irn%s %s %s</tspan>' % (case_arg, self.arg_exclude_dirs())</tspan><tspan
         sodipodi:role="line"
         x="24.292036"
         y="981.27814"
         id="tspan3244"
         style="font-size:2px">            cmd = '<tspan
   style="fill:#ff00ff"
   id="tspan3368">grep %s &quot;%s&quot; %s</tspan>' % (args, string, path)</tspan><tspan
         sodipodi:role="line"
         x="24.292036"
         y="983.77814"
         id="tspan3246"
         style="font-size:2px"><tspan
   style="fill:#aa0000"
   id="tspan3316">            print</tspan> case_sensitive, cmd</tspan><tspan
         sodipodi:role="line"
         x="24.292036"
         y="986.27814"
         id="tspan3248"
         style="font-size:2px">            o = subprocess.check_output(cmd, shell=True)</tspan><tspan
         sodipodi:role="line"
         x="24.292036"
         y="988.77814"
         id="tspan3250"
         style="font-size:2px">            o = o.decode('<tspan
   style="fill:#ff00ff"
   id="tspan3366">utf-8</tspan>', 'replace')</tspan><tspan
         sodipodi:role="line"
         x="24.292036"
         y="991.27814"
         id="tspan3252"
         style="font-size:2px" /><tspan
         sodipodi:role="line"
         x="24.292036"
         y="993.77814"
         id="tspan3254"
         style="font-size:2px">            results = GrepResults()</tspan><tspan
         sodipodi:role="line"
         x="24.292036"
         y="996.27814"
         id="tspan3256"
         style="font-size:2px"><tspan
   style="fill:#aa0000"
   id="tspan3318">            for</tspan> line <tspan
   style="fill:#aa0000"
   id="tspan3320">in</tspan> o.splitlines():</tspan><tspan
         sodipodi:role="line"
         x="24.292036"
         y="998.77814"
         id="tspan3258"
         style="font-size:2px">                (filename, sep, rest) = line.partition(<tspan
   style="fill:#ff00ff"
   id="tspan3364">':'</tspan>)</tspan><tspan
         sodipodi:role="line"
         x="24.292036"
         y="1001.2781"
         id="tspan3260"
         style="font-size:2px">                (linenum, sep, text) = rest.partition(<tspan
   style="fill:#ff00ff"
   id="tspan3362">':'</tspan>)</tspan><tspan
         sodipodi:role="line"
         x="24.292036"
         y="1003.7781"
         id="tspan3262"
         style="font-size:2px">                </tspan><tspan
         sodipodi:role="line"
         x="24.292036"
         y="1006.2781"
         id="tspan3264"
         style="font-size:2px"><tspan
   style="fill:#aa0000"
   id="tspan3322">                if</tspan> (<tspan
   style="fill:#aa0000"
   id="tspan3348">not</tspan> filename) or (<tspan
   style="fill:#aa0000"
   id="tspan3346">not</tspan> text) <tspan
   style="fill:#aa0000"
   id="tspan3342">or</tspan> (<tspan
   style="fill:#aa0000"
   id="tspan3344">not</tspan> linenum):</tspan><tspan
         sodipodi:role="line"
         x="24.292036"
         y="1008.7781"
         id="tspan3266"
         style="font-size:2px">                    continue</tspan><tspan
         sodipodi:role="line"
         x="24.292036"
         y="1011.2781"
         id="tspan3268"
         style="font-size:2px"><tspan
   style="fill:#aa0000"
   id="tspan3324">                if</tspan> (max_matches &gt; 0) <tspan
   style="fill:#aa0000"
   id="tspan3340">and</tspan><tspan
   style="fill:#008080"
   id="tspan3332"> len</tspan>(results) == max_matches:</tspan><tspan
         sodipodi:role="line"
         x="24.292036"
         y="1013.7781"
         id="tspan3270"
         style="font-size:2px;fill:#aa0000">                    break</tspan><tspan
         sodipodi:role="line"
         x="24.292036"
         y="1016.2781"
         id="tspan3272"
         style="font-size:2px">                results.append(GrepResult(<tspan
   style="fill:#008080"
   id="tspan3328">self</tspan>.trunc_path(filename, path), text)</tspan><tspan
         sodipodi:role="line"
         x="24.292036"
         y="1018.7781"
         id="tspan3274"
         style="font-size:2px" /><tspan
         sodipodi:role="line"
         x="24.292036"
         y="1021.2781"
         id="tspan3276"
         style="font-size:2px"><tspan
   style="fill:#aa0000"
   id="tspan3326">            return </tspan>results</tspan><tspan
         sodipodi:role="line"
         x="24.292036"
         y="1023.7781"
         id="tspan3278"
         style="font-size:2px">            </tspan><tspan
         sodipodi:role="line"
         x="24.292036"
         y="1026.2781"
         id="tspan3280"
         style="font-size:2px"><tspan
   style="fill:#aa0000"
   id="tspan3350">        except</tspan> subprocess.CalledProcessError <tspan
   style="fill:#aa0000"
   id="tspan3352">as</tspan> e:</tspan><tspan
         sodipodi:role="line"
         x="24.292036"
         y="1028.7781"
         id="tspan3282"
         style="font-size:2px">            if (e.returncode == <tspan
   style="fill:#ff00ff"
   id="tspan3360">2</tspan>):</tspan><tspan
         sodipodi:role="line"
         x="24.292036"
         y="1031.2781"
         id="tspan3284"
         style="font-size:2px"><tspan
   style="fill:#aa0000"
   id="tspan3356">                raise</tspan> BadPathException()</tspan><tspan
         sodipodi:role="line"
         x="24.292036"
         y="1033.7781"
         id="tspan3286"
         style="font-size:2px">            elif (e.returncode == <tspan
   style="fill:#ff00ff"
   id="tspan3358">1</tspan>):</tspan><tspan
         sodipodi:role="line"
         x="24.292036"
         y="1036.2781"
         id="tspan3288"
         style="font-size:2px"><tspan
   style="fill:#aa0000"
   id="tspan3354">                raise</tspan> NoResultsException()</tspan><tspan
         sodipodi:role="line"
         x="24.292036"
         y="1038.7781"
         id="tspan3290"
         style="font-size:2px">            else:</tspan><tspan
         sodipodi:role="line"
         x="24.292036"
         y="1041.2781"
         id="tspan3292"
         style="font-size:2px">                raise e</tspan></text>
    <g
       transform="matrix(0.32393697,-0.06296696,0.06296696,0.32393697,7.581338,956.78093)"
       id="g3316">
      <circle
         style="fill:none"
         sodipodi:ry="77.544998"
         sodipodi:rx="77.544998"
         sodipodi:cy="-22.844"
         sodipodi:cx="61.922001"
         d="m 139.467,-22.844 c 0,42.82692 -34.71808,77.544998 -77.544999,77.544998 -42.82692,0 -77.544998,-34.718078 -77.544998,-77.544998 0,-42.82692 34.718078,-77.545 77.544998,-77.545 42.826919,0 77.544999,34.71808 77.544999,77.545 z"
         id="circle5"
         r="77.544998"
         cy="-22.844"
         cx="61.922001" />
      <g
         id="g25">
        <g
           id="g27">
          <path
             style="opacity:0;fill-rule:evenodd"
             inkscape:connector-curvature="0"
             id="path29"
             d="m 137.849,93.25 c -0.289,1.924 -0.246,3.969 -0.225,5.91 0.193,16.866 7.596,32.451 19.811,43.954 12.781,12.036 29.775,18.653 47.295,18.835 17.234,0.178 34.068,-5.879 46.691,-17.763 12.027,-11.32 18.879,-26.802 18.689,-43.349 -0.039,-3.387 -0.182,-6.932 -1.01,-10.232 -2.682,-10.687 -9.572,-20.089 -17.49,-27.546 -16.949,-15.962 -41.176,-22.528 -63.912,-17.741 -12.01,2.529 -23.105,8.141 -32.057,16.568 -8.852,8.335 -15.964,19.159 -17.792,31.364 z m -12.305,55.167 c 0.158,-2.369 1.225,-4.681 3.16,-6.354 l 0.326,-0.282 c -7.137,-13.536 -9.568,-28.748 -8.613,-44.107 1.279,-20.598 8.791,-39.934 24.004,-54.252 15.873,-14.942 37.008,-22.651 58.693,-22.427 21.881,0.228 43.076,8.518 59.035,23.546 15.594,14.685 24.934,34.664 25.182,56.171 0.137,12.067 -3.232,23.667 -8.07,34.628 -4.631,10.496 -10.402,20.103 -18.82,28.025 -29.576,27.842 -76.084,28.898 -108.145,5.149 l -0.408,0.353 c -1.934,1.674 -4.375,2.396 -6.742,2.209 l -6.25,5.407 c -0.178,2.335 -1.24,4.603 -3.146,6.253 l -0.42,0.363 -1.24,2.908 c -0.48,1.525 -1.355,2.905 -2.578,3.963 l -101.94,88.172 c -3.148,2.724 -7.418,2.626 -10.782,0.397 -7.686,-5.093 -12.704,-12.145 -17.426,-19.892 -2.236,-3.671 -1.731,-8.415 1.576,-11.282 l 0.072,-0.064 97.161,-84.038 -2.508,-3.396 14.531,-3.436 0.457,-0.395 c 1.908,-1.65 4.309,-2.379 6.646,-2.218 l 6.245,-5.401 0,0 z"
             clip-rule="evenodd" />
          <path
             style="opacity:0.00139998"
             inkscape:connector-curvature="0"
             id="path31"
             d="m 155.551,61.318 c -9.01,8.428 -16.188,19.409 -18.059,31.799 -0.295,1.951 -0.268,4.02 -0.254,5.993 0.136,16.979 7.535,32.671 19.772,44.26 12.777,12.098 29.821,18.817 47.478,19.042 17.385,0.221 34.315,-5.873 47.006,-17.759 12.122,-11.348 19.084,-26.901 18.952,-43.576 -0.026,-3.438 -0.173,-7.023 -0.991,-10.37 -2.652,-10.852 -9.528,-20.421 -17.533,-28.01 -16.747,-15.836 -40.679,-22.508 -63.306,-18 -12.408,2.359 -23.872,8.028 -33.065,16.621 z m -10.73,-17.636 c 15.798,-14.81 36.842,-22.482 58.483,-22.217 0.01,0 0.02,0 0.029,0 0.001,0 0.002,0 0.003,0 l 0,0 0,0 c 21.816,0.277 42.864,8.598 58.672,23.55 12.274,11.625 20.619,26.579 23.58,42.972 0.811,4.487 1.219,9.069 1.201,13.708 -0.054,12.124 -3.634,23.725 -8.737,34.585 -4.763,10.296 -10.674,19.678 -19.146,27.371 -8.352,7.602 -18.016,13.107 -28.309,16.546 -19.612,6.55 -41.347,5.601 -60.48,-2.438 -2.768,-0.993 -5.491,-2.133 -8.157,-3.416 -1.04,-0.499 -2.088,-1.065 -3.105,-1.675 -0.234,-0.141 -0.493,-0.306 -0.728,-0.447 -1.589,-0.957 -3.331,-1.812 -4.859,-2.883 -0.562,-0.395 -1.188,-0.738 -1.741,-1.148 l -0.404,0.35 c -1.841,1.594 -4.395,2.479 -6.649,2.3 l -4.459,3.857 -1.657,1.479 c -0.053,1.146 -0.358,2.29 -0.886,3.339 -0.511,1.017 -1.298,2.034 -2.209,2.823 l -0.396,0.35 -1.234,2.895 c -0.243,0.769 -0.633,1.598 -1.079,2.265 -0.399,0.609 -0.882,1.167 -1.441,1.65 L 29.68,277.205 c -2.103,1.818 -4.994,2.542 -7.481,1.944 -0.281,-0.066 -0.587,-0.129 -0.866,-0.218 -0.791,-0.254 -1.578,-0.618 -2.313,-1.105 -3.88,-2.571 -6.686,-5.26 -9.51,-8.675 -0.519,-0.628 -0.999,-1.281 -1.46,-1.912 -0.015,-0.021 -0.029,-0.043 -0.045,-0.063 -0.003,-0.004 -0.006,-0.008 -0.009,-0.012 -2.135,-2.76 -3.687,-6.038 -5.562,-9.114 -2.13,-3.496 -1.235,-8.368 1.915,-11.099 l 0.07,-0.063 88.042,-76.116 c 0.005,-0.005 0.33,-0.283 0.335,-0.286 l -0.001,-0.002 4.734,-3.926 h 0.001 l 1.946,-1.684 c 0.04,-0.034 1.849,-1.543 1.882,-1.505 l -0.405,-0.554 -1.859,-2.769 12.062,-3.174 2.214,-0.567 0.411,-0.402 c 0.811,-0.771 1.763,-1.373 2.797,-1.762 1.145,-0.406 2.479,-0.673 3.669,-0.591 l 4.482,-3.876 c -0.021,-0.026 1.62,-1.49 1.601,-1.517 l 0,0 c 0.087,-2.342 1.042,-4.631 2.83,-6.314 -0.003,-0.005 0.305,-0.279 0.301,-0.284 -7.13,-13.439 -9.622,-28.567 -8.677,-43.871 10e-4,-0.01 0.002,-0.02 0.003,-0.029 l 0,0 0,0 c 1.273,-20.541 8.872,-39.769 24.034,-53.977 z" />
          <path
             style="opacity:0.00290001"
             inkscape:connector-curvature="0"
             id="path33"
             d="m 155.46,60.75 c -9.166,8.521 -16.41,19.659 -18.324,32.234 -0.302,1.979 -0.289,4.07 -0.283,6.075 0.079,17.092 7.475,32.892 19.734,44.566 12.772,12.159 29.867,18.982 47.66,19.249 17.535,0.263 34.563,-5.867 47.319,-17.754 12.217,-11.377 19.29,-27.001 19.215,-43.805 C 270.768,97.826 270.619,94.2 269.81,90.806 267.186,79.79 260.324,70.055 252.233,62.334 235.689,46.623 212.05,39.846 189.535,44.074 176.729,46.263 164.894,51.99 155.46,60.75 z M 145.22,43.94 c 15.723,-14.675 36.676,-22.313 58.273,-22.005 0.009,0 0.021,0 0.029,0 0.001,0 0.002,0 0.003,0 l 0,0 0,0 c 21.764,0.317 42.678,8.669 58.341,23.553 12.308,11.723 20.609,26.841 23.37,43.396 0.756,4.528 1.1,9.14 1.012,13.792 -0.244,12.181 -4.036,23.782 -9.406,34.542 -4.894,10.095 -10.945,19.253 -19.472,26.717 -8.381,7.366 -18.045,12.665 -28.323,15.904 -19.593,6.173 -41.098,4.884 -59.91,-3.346 -2.72,-0.853 -5.405,-1.844 -8.041,-2.974 -1.03,-0.438 -2.084,-0.986 -3.091,-1.601 -0.221,-0.135 -0.493,-0.319 -0.716,-0.453 -1.509,-0.909 -3.357,-1.555 -4.809,-2.572 -0.534,-0.375 -1.199,-0.641 -1.725,-1.03 l -0.4,0.347 c -1.75,1.514 -4.415,2.561 -6.557,2.391 l -4.433,3.833 -1.552,1.433 c -0.015,1.131 -0.319,2.273 -0.853,3.312 -0.493,0.96 -1.323,2.011 -2.189,2.761 l -0.374,0.336 -1.229,2.88 c -0.23,0.731 -0.645,1.621 -1.068,2.255 -0.384,0.597 -0.85,1.144 -1.394,1.613 l -100.92,87.244 c -1.999,1.729 -5.02,2.652 -7.383,2.085 -0.267,-0.063 -0.588,-0.102 -0.854,-0.181 -0.777,-0.231 -1.569,-0.573 -2.302,-1.058 -4.023,-2.666 -6.528,-5.101 -9.426,-8.674 -0.513,-0.633 -0.953,-1.307 -1.38,-1.921 -0.014,-0.021 -0.024,-0.044 -0.04,-0.063 -0.003,-0.003 -0.005,-0.008 -0.008,-0.012 -2.028,-2.621 -3.112,-6.07 -4.893,-8.992 -2.023,-3.321 -0.74,-8.321 2.253,-10.915 l 0.068,-0.061 87.738,-75.818 c 0.011,-0.009 0.325,-0.277 0.337,-0.283 l -0.002,-0.004 4.777,-3.796 10e-4,0.001 1.94,-1.678 c 0.079,-0.068 1.86,-1.498 1.927,-1.421 l -0.361,-0.499 -1.659,-2.749 11.844,-3.447 2.176,-0.601 0.365,-0.41 c 0.734,-0.773 1.644,-1.409 2.668,-1.813 1.086,-0.386 2.485,-0.752 3.616,-0.675 l 4.466,-3.858 c -0.041,-0.052 1.497,-1.471 1.457,-1.523 l 0,0 c 0.015,-2.313 0.86,-4.58 2.5,-6.274 -0.007,-0.011 0.282,-0.276 0.275,-0.287 -7.123,-13.342 -9.675,-28.387 -8.739,-43.635 10e-4,-0.009 10e-4,-0.021 0.002,-0.029 l 0,0 0,0 c 1.266,-20.498 8.953,-39.631 24.071,-53.737 z" />
          <path
             style="opacity:0.00429999"
             inkscape:connector-curvature="0"
             id="path35"
             d="m 155.369,60.182 c -9.321,8.615 -16.632,19.91 -18.588,32.67 -0.309,2.005 -0.313,4.121 -0.313,6.158 0.021,17.203 7.415,33.111 19.695,44.872 12.77,12.221 29.914,19.146 47.844,19.456 17.686,0.306 34.811,-5.861 47.634,-17.75 12.312,-11.404 19.495,-27.101 19.478,-44.032 0,-3.541 -0.153,-7.206 -0.952,-10.646 -2.595,-11.181 -9.442,-21.083 -17.62,-28.936 -16.342,-15.586 -39.686,-22.468 -62.092,-18.519 -13.206,2.016 -25.411,7.801 -35.086,16.727 z M 145.621,44.2 c 15.646,-14.542 36.509,-22.145 58.063,-21.795 0.009,0 0.021,0 0.029,0 0.001,0 0.002,0 0.003,0 l 0,0 0,0 c 21.71,0.359 42.49,8.742 58.01,23.556 12.341,11.822 20.601,27.104 23.161,43.821 0.701,4.57 0.979,9.21 0.82,13.877 -0.435,12.237 -4.437,23.839 -10.073,34.5 -5.025,9.894 -11.217,18.827 -19.798,26.063 -8.409,7.131 -18.073,12.221 -28.339,15.263 -19.571,5.794 -40.848,4.167 -59.338,-4.256 -2.674,-0.71 -5.319,-1.554 -7.926,-2.529 -1.02,-0.378 -2.079,-0.911 -3.075,-1.527 -0.209,-0.13 -0.493,-0.332 -0.704,-0.46 -1.43,-0.861 -3.384,-1.296 -4.76,-2.261 -0.505,-0.354 -1.21,-0.543 -1.708,-0.912 l -0.396,0.343 c -1.657,1.435 -4.435,2.644 -6.464,2.482 l -4.404,3.809 -1.446,1.387 c 0.021,1.114 -0.281,2.257 -0.819,3.282 -0.476,0.906 -1.351,1.989 -2.171,2.7 l -0.351,0.321 -1.223,2.866 c -0.219,0.692 -0.657,1.645 -1.059,2.245 -0.367,0.584 -0.816,1.119 -1.346,1.575 L 29.896,275.331 c -1.893,1.637 -5.045,2.761 -7.284,2.224 -0.252,-0.061 -0.587,-0.073 -0.841,-0.143 -0.766,-0.209 -1.562,-0.527 -2.291,-1.011 -4.166,-2.76 -6.374,-4.938 -9.342,-8.671 -0.507,-0.638 -0.91,-1.33 -1.3,-1.931 -0.013,-0.02 -0.021,-0.044 -0.035,-0.063 -0.003,-0.004 -0.004,-0.008 -0.007,-0.012 -1.921,-2.483 -2.537,-6.103 -4.224,-8.871 -1.917,-3.146 -0.244,-8.274 2.591,-10.731 l 0.066,-0.06 87.435,-75.519 c 0.016,-0.015 0.32,-0.273 0.339,-0.281 L 95,170.259 l 4.819,-3.666 0.002,0.002 1.934,-1.674 c 0.118,-0.102 1.871,-1.451 1.972,-1.336 l -0.318,-0.444 -1.459,-2.73 11.627,-3.719 2.136,-0.635 0.32,-0.418 c 0.657,-0.775 1.524,-1.444 2.538,-1.866 1.029,-0.365 2.494,-0.831 3.565,-0.757 l 4.449,-3.842 c -0.063,-0.078 1.372,-1.451 1.313,-1.53 l 0,0 c -0.057,-2.286 0.678,-4.53 2.17,-6.235 -0.01,-0.016 0.261,-0.273 0.251,-0.289 -7.116,-13.245 -9.729,-28.206 -8.804,-43.398 0.001,-0.009 0.002,-0.021 0.003,-0.029 l 0,0 0,0 C 122.77,77.24 130.544,58.202 145.621,44.2 z" />
          <path
             style="opacity:0.00570003"
             inkscape:connector-curvature="0"
             id="path37"
             d="m 155.278,59.613 c -9.479,8.71 -16.855,20.16 -18.854,33.105 -0.314,2.032 -0.334,4.172 -0.343,6.241 -0.035,17.315 7.354,33.331 19.657,45.178 12.765,12.281 29.96,19.312 48.027,19.663 17.835,0.349 35.057,-5.855 47.947,-17.746 12.405,-11.432 19.699,-27.199 19.739,-44.26 0.014,-3.592 -0.143,-7.298 -0.933,-10.785 C 267.953,79.663 261.12,69.595 252.854,61.612 236.716,46.151 213.666,39.164 191.371,42.834 177.769,44.678 165.195,50.521 155.278,59.613 z M 146.02,44.46 c 15.571,-14.408 36.342,-21.976 57.853,-21.585 0.008,0 0.021,0 0.029,0 h 0.002 l 0,0 0,0 c 21.657,0.4 42.304,8.814 57.679,23.56 12.375,11.92 20.592,27.364 22.952,44.245 0.647,4.613 0.86,9.281 0.631,13.963 -0.626,12.293 -4.839,23.896 -10.741,34.456 -5.157,9.692 -11.488,18.401 -20.124,25.408 -8.438,6.896 -18.103,11.778 -28.354,14.622 -19.55,5.416 -40.599,3.449 -58.767,-5.165 -2.626,-0.569 -5.232,-1.265 -7.811,-2.086 -1.008,-0.317 -2.073,-0.833 -3.06,-1.454 -0.196,-0.124 -0.493,-0.346 -0.692,-0.466 -1.35,-0.813 -3.41,-1.039 -4.709,-1.95 -0.478,-0.335 -1.221,-0.444 -1.691,-0.793 l -0.394,0.339 c -1.565,1.355 -4.454,2.726 -6.37,2.573 l -4.378,3.784 -1.34,1.34 c 0.058,1.099 -0.243,2.239 -0.787,3.255 -0.456,0.852 -1.376,1.966 -2.151,2.638 l -0.328,0.308 -1.216,2.853 c -0.206,0.653 -0.67,1.668 -1.05,2.234 -0.35,0.572 -0.783,1.096 -1.296,1.538 l -99.902,86.317 c -1.788,1.547 -5.07,2.871 -7.185,2.363 -0.239,-0.057 -0.588,-0.044 -0.829,-0.104 -0.755,-0.189 -1.553,-0.482 -2.28,-0.963 -4.308,-2.854 -6.218,-4.776 -9.258,-8.67 -0.501,-0.642 -0.858,-1.354 -1.22,-1.94 -0.011,-0.018 -0.016,-0.044 -0.029,-0.062 -0.003,-0.003 -0.003,-0.008 -0.006,-0.011 -1.815,-2.346 -1.962,-6.135 -3.556,-8.749 -1.81,-2.972 0.252,-8.228 2.93,-10.549 l 0.064,-0.058 87.131,-75.221 c 0.021,-0.019 0.316,-0.268 0.341,-0.278 l -0.005,-0.007 4.862,-3.536 0.003,0.003 1.928,-1.668 c 0.157,-0.136 1.882,-1.406 2.017,-1.252 l -0.273,-0.391 -1.259,-2.711 11.41,-3.99 2.098,-0.669 0.274,-0.426 c 0.58,-0.778 1.405,-1.48 2.408,-1.918 0.973,-0.346 2.502,-0.91 3.514,-0.841 l 4.433,-3.824 c -0.083,-0.104 1.248,-1.432 1.168,-1.538 l 0,0 c -0.127,-2.257 0.497,-4.479 1.841,-6.194 -0.013,-0.021 0.238,-0.271 0.226,-0.292 -7.109,-13.148 -9.782,-28.024 -8.867,-43.162 0.001,-0.008 0.002,-0.021 0.003,-0.029 l 0,0 0,0 c 1.236,-20.405 9.099,-39.349 24.131,-53.247 z" />
          <path
             style="opacity:0.0071"
             inkscape:connector-curvature="0"
             id="path39"
             d="m 155.187,59.045 c -9.635,8.804 -17.078,20.411 -19.119,33.541 -0.321,2.06 -0.355,4.223 -0.372,6.324 -0.093,17.428 7.294,33.551 19.619,45.483 12.761,12.343 30.006,19.476 48.21,19.87 17.985,0.392 35.304,-5.85 48.261,-17.742 12.501,-11.46 19.905,-27.299 20.003,-44.487 0.026,-3.644 -0.134,-7.39 -0.914,-10.923 C 268.339,79.6 261.52,69.365 253.168,61.25 237.232,45.915 214.477,38.822 192.291,42.213 178.289,43.886 165.345,49.787 155.187,59.045 z M 146.419,44.72 c 15.496,-14.275 36.176,-21.807 57.643,-21.375 0.008,0 0.021,0 0.029,0 h 0.002 v 0.001 l 0,0 c 21.604,0.441 42.116,8.887 57.348,23.563 12.408,12.018 20.582,27.626 22.743,44.67 0.592,4.654 0.74,9.351 0.439,14.047 -0.816,12.35 -5.24,23.953 -11.408,34.413 -5.289,9.492 -11.76,17.977 -20.45,24.754 -8.467,6.661 -18.131,11.336 -28.37,13.98 -19.529,5.038 -40.349,2.733 -58.195,-6.074 -2.578,-0.427 -5.145,-0.981 -7.694,-1.643 -0.996,-0.259 -2.069,-0.755 -3.045,-1.38 -0.185,-0.118 -0.492,-0.359 -0.68,-0.473 -1.271,-0.766 -3.437,-0.781 -4.659,-1.639 -0.449,-0.315 -1.232,-0.347 -1.676,-0.675 l -0.389,0.336 c -1.474,1.275 -4.475,2.808 -6.278,2.664 l -4.35,3.76 -1.235,1.294 c 0.096,1.083 -0.202,2.223 -0.753,3.227 -0.438,0.798 -1.403,1.943 -2.133,2.575 l -0.305,0.294 -1.21,2.838 c -0.194,0.615 -0.683,1.692 -1.04,2.226 -0.333,0.559 -0.751,1.071 -1.248,1.5 l -99.393,85.854 c -1.683,1.455 -5.096,2.98 -7.086,2.503 -0.225,-0.054 -0.588,-0.017 -0.816,-0.067 -0.745,-0.168 -1.545,-0.437 -2.27,-0.916 -4.45,-2.948 -6.062,-4.614 -9.173,-8.668 -0.496,-0.646 -0.809,-1.376 -1.14,-1.949 -0.01,-0.018 -0.012,-0.044 -0.024,-0.061 C 9.601,264.296 9.601,264.291 9.598,264.288 7.89,262.08 8.21,258.12 6.71,255.66 5.006,252.863 7.459,247.479 9.979,245.295 l 0.062,-0.056 86.828,-74.923 c 0.027,-0.023 0.311,-0.262 0.342,-0.275 l -0.006,-0.009 4.905,-3.405 0.003,0.003 1.921,-1.662 c 0.197,-0.17 1.893,-1.36 2.062,-1.168 l -0.229,-0.336 -1.06,-2.692 11.193,-4.263 2.059,-0.702 0.229,-0.434 c 0.503,-0.78 1.286,-1.517 2.278,-1.971 0.916,-0.325 2.511,-0.988 3.463,-0.923 l 4.416,-3.808 c -0.104,-0.13 1.124,-1.412 1.023,-1.545 l 0,0 c -0.198,-2.229 0.314,-4.429 1.511,-6.155 -0.016,-0.026 0.217,-0.268 0.2,-0.294 -7.103,-13.051 -9.836,-27.844 -8.93,-42.926 0,-0.008 0.001,-0.021 0.002,-0.029 l 0,0 0,0 c 1.229,-20.359 9.18,-39.207 24.168,-53.002 z" />
          <path
             style="opacity:0.00859997"
             inkscape:connector-curvature="0"
             id="path41"
             d="m 155.096,58.476 c -9.791,8.898 -17.301,20.663 -19.385,33.978 -0.327,2.087 -0.377,4.273 -0.401,6.406 -0.149,17.541 7.233,33.771 19.581,45.79 12.757,12.404 30.052,19.64 48.393,20.077 18.136,0.434 35.552,-5.845 48.575,-17.737 12.595,-11.488 20.11,-27.399 20.266,-44.716 0.039,-3.694 -0.124,-7.481 -0.895,-11.061 -2.509,-11.676 -9.313,-22.077 -17.751,-30.325 -15.733,-15.209 -38.194,-22.408 -60.27,-19.297 -14.4,1.502 -27.714,7.462 -38.113,16.885 z m -8.277,-13.497 c 15.422,-14.142 36.01,-21.637 57.433,-21.163 0.007,0 0.021,0 0.028,0 0.001,0 0.002,0 0.003,0 l 0,0 0,0 c 21.551,0.483 41.93,8.959 57.017,23.566 12.442,12.115 20.572,27.888 22.533,45.094 0.538,4.696 0.621,9.421 0.249,14.132 -1.006,12.406 -5.642,24.011 -12.076,34.37 -5.419,9.292 -12.031,17.552 -20.776,24.1 -8.494,6.427 -18.159,10.894 -28.384,13.34 -19.509,4.659 -40.1,2.017 -57.625,-6.983 -2.53,-0.286 -5.058,-0.693 -7.578,-1.199 -0.986,-0.198 -2.063,-0.678 -3.03,-1.307 -0.171,-0.111 -0.491,-0.373 -0.667,-0.479 -1.191,-0.718 -3.464,-0.524 -4.609,-1.328 -0.422,-0.296 -1.244,-0.249 -1.659,-0.557 l -0.386,0.333 c -1.381,1.195 -4.494,2.89 -6.185,2.756 l -4.323,3.733 -1.129,1.248 c 0.132,1.067 -0.164,2.206 -0.721,3.199 -0.417,0.743 -1.429,1.921 -2.112,2.513 l -0.283,0.281 -1.204,2.823 c -0.182,0.577 -0.694,1.715 -1.029,2.215 -0.317,0.547 -0.719,1.048 -1.2,1.464 l -98.883,85.391 c -1.578,1.364 -5.122,3.09 -6.987,2.642 -0.211,-0.05 -0.589,0.014 -0.805,-0.029 -0.737,-0.146 -1.536,-0.391 -2.258,-0.868 -4.592,-3.044 -5.908,-4.451 -9.089,-8.667 -0.49,-0.65 -0.876,-1.345 -1.06,-1.958 -0.012,-0.016 -0.007,-0.045 -0.019,-0.06 -0.002,-0.003 -0.002,-0.009 -0.004,-0.012 C 8.4,261.5 9.188,257.37 7.782,255.063 c -1.597,-2.622 1.244,-8.134 3.607,-10.182 l 0.06,-0.054 86.524,-74.625 c 0.032,-0.027 0.307,-0.256 0.344,-0.273 l -0.007,-0.01 4.948,-3.275 0.004,0.004 1.915,-1.656 c 0.235,-0.204 1.904,-1.314 2.106,-1.084 l -0.186,-0.281 -0.859,-2.673 10.976,-4.535 2.021,-0.736 0.184,-0.442 c 0.426,-0.781 1.166,-1.552 2.148,-2.021 0.857,-0.305 2.518,-1.067 3.411,-1.007 l 4.398,-3.79 c -0.124,-0.156 1,-1.393 0.88,-1.552 l 0,0 c -0.271,-2.201 0.132,-4.379 1.181,-6.115 -0.02,-0.032 0.194,-0.265 0.175,-0.297 -7.096,-12.954 -9.89,-27.663 -8.993,-42.689 0.001,-0.007 0.001,-0.021 0.002,-0.028 v -0.001 l 0,0 c 1.213,-20.317 9.254,-39.069 24.198,-52.762 z" />
          <path
             style="opacity:0.01000001"
             inkscape:connector-curvature="0"
             id="path43"
             d="m 155.004,57.907 c -9.946,8.992 -17.522,20.913 -19.649,34.413 -0.333,2.114 -0.399,4.324 -0.431,6.489 -0.207,17.652 7.174,33.99 19.543,46.096 12.752,12.466 30.098,19.805 48.575,20.284 18.286,0.477 35.799,-5.839 48.89,-17.733 12.689,-11.516 20.315,-27.498 20.527,-44.943 0.053,-3.746 -0.114,-7.572 -0.875,-11.199 C 269.105,79.474 262.315,68.906 253.79,60.527 238.26,45.443 216.092,38.138 194.127,40.97 c -14.798,1.331 -28.482,7.348 -39.123,16.937 z m -7.785,-12.669 c 15.346,-14.008 35.843,-21.468 57.222,-20.953 0.007,0 0.022,0 0.028,0 0.001,0 0.002,0 0.003,0 l 0,0 0,0 c 21.497,0.524 41.742,9.032 56.686,23.569 12.476,12.215 20.563,28.15 22.324,45.519 0.483,4.738 0.501,9.492 0.059,14.217 -1.197,12.463 -6.044,24.067 -12.744,34.327 -5.551,9.091 -12.303,17.127 -21.103,23.445 -8.523,6.191 -18.188,10.45 -28.399,12.699 -19.487,4.281 -39.85,1.299 -57.054,-7.894 -2.482,-0.144 -4.972,-0.403 -7.462,-0.755 -0.977,-0.138 -2.059,-0.603 -3.015,-1.233 -0.159,-0.105 -0.492,-0.386 -0.656,-0.485 -1.111,-0.67 -3.489,-0.267 -4.559,-1.017 -0.394,-0.275 -1.256,-0.151 -1.644,-0.438 l -0.382,0.329 c -1.289,1.116 -4.514,2.973 -6.092,2.848 l -4.295,3.709 -1.023,1.202 c 0.168,1.051 -0.125,2.188 -0.688,3.171 -0.396,0.69 -1.456,1.897 -2.094,2.45 l -0.26,0.268 -1.198,2.81 c -0.17,0.538 -0.707,1.738 -1.02,2.205 -0.301,0.534 -0.687,1.023 -1.152,1.426 l -98.374,84.927 c -1.472,1.273 -5.147,3.199 -6.889,2.781 -0.196,-0.047 -0.59,0.043 -0.792,0.009 -0.73,-0.125 -1.528,-0.346 -2.247,-0.821 -4.735,-3.138 -5.756,-4.285 -9.005,-8.664 -0.485,-0.654 -0.849,-1.36 -0.979,-1.968 -0.011,-0.015 -0.003,-0.045 -0.014,-0.06 -0.002,-0.002 -10e-4,-0.008 -0.003,-0.011 -1.494,-1.932 -0.238,-6.231 -1.55,-8.385 -1.491,-2.447 1.74,-8.087 3.945,-9.998 l 0.058,-0.052 86.22,-74.326 c 0.038,-0.033 0.302,-0.252 0.346,-0.271 l -0.008,-0.012 4.991,-3.145 0.005,0.004 1.909,-1.65 c 0.275,-0.238 1.915,-1.27 2.151,-1 l -0.142,-0.227 -0.659,-2.654 10.759,-4.807 1.98,-0.771 0.139,-0.45 c 0.349,-0.784 1.047,-1.588 2.019,-2.074 0.801,-0.284 2.526,-1.146 3.359,-1.089 l 4.383,-3.773 c -0.146,-0.183 0.875,-1.373 0.735,-1.559 l 0,0 c -0.342,-2.174 -0.05,-4.329 0.851,-6.076 -0.022,-0.037 0.173,-0.262 0.15,-0.299 -7.089,-12.857 -9.943,-27.482 -9.058,-42.453 0.001,-0.007 0.002,-0.022 0.002,-0.028 v -10e-4 l 0,0 c 1.207,-20.269 9.334,-38.926 24.236,-52.516 z" />
          <path
             style="opacity:0.01139999"
             inkscape:connector-curvature="0"
             id="path45"
             d="M 154.914,57.339 C 144.811,66.425 137.168,78.503 135,92.188 c -0.341,2.141 -0.422,4.375 -0.461,6.572 -0.264,17.765 7.113,34.21 19.504,46.401 12.749,12.527 30.145,19.969 48.759,20.491 18.437,0.52 36.046,-5.833 49.203,-17.729 12.784,-11.544 20.521,-27.598 20.791,-45.171 0.065,-3.797 -0.104,-7.664 -0.856,-11.337 -2.45,-12.005 -9.226,-22.74 -17.837,-31.251 -15.328,-14.959 -37.201,-22.368 -59.056,-19.815 -15.198,1.159 -29.252,7.235 -40.133,16.99 z m -7.295,-11.841 c 15.271,-13.875 35.677,-21.3 57.012,-20.743 0.006,0 0.022,0 0.028,0 0.001,0 0.002,0 0.003,0 v 0.001 l 0,0 c 21.444,0.565 41.555,9.104 56.354,23.572 12.509,12.313 20.554,28.412 22.115,45.943 0.428,4.779 0.381,9.562 -0.133,14.301 -1.388,12.52 -6.444,24.125 -13.411,34.285 -5.683,8.89 -12.574,16.701 -21.429,22.791 -8.552,5.956 -18.216,10.007 -28.415,12.057 -19.467,3.903 -39.6,0.583 -56.481,-8.802 -2.437,-0.003 -4.887,-0.115 -7.347,-0.313 -0.966,-0.077 -2.054,-0.523 -3,-1.159 -0.147,-0.099 -0.491,-0.399 -0.644,-0.491 -1.032,-0.622 -3.516,-0.009 -4.51,-0.706 -0.364,-0.256 -1.267,-0.054 -1.626,-0.32 l -0.378,0.326 c -1.197,1.036 -4.534,3.055 -6,2.938 l -4.268,3.685 -0.918,1.155 c 0.206,1.036 -0.086,2.17 -0.654,3.143 -0.373,0.639 -1.482,1.876 -2.074,2.39 l -0.237,0.253 -1.191,2.795 c -0.158,0.5 -0.72,1.763 -1.01,2.196 -0.284,0.521 -0.653,0.999 -1.104,1.388 l -97.864,84.464 c -1.367,1.183 -5.173,3.309 -6.79,2.921 -0.183,-0.044 -0.6,0.107 -0.78,0.046 -0.732,0.031 -1.52,-0.3 -2.236,-0.774 -4.877,-3.231 -5.606,-4.118 -8.921,-8.662 -0.48,-0.658 -0.821,-1.375 -0.899,-1.977 -0.01,-0.014 10e-4,-0.045 -0.009,-0.059 -0.002,-0.003 0,-0.009 -0.002,-0.011 -1.388,-1.794 0.337,-6.265 -0.881,-8.264 -1.384,-2.272 2.236,-8.04 4.284,-9.814 l 0.056,-0.051 85.917,-74.027 c 0.043,-0.037 0.297,-0.246 0.347,-0.269 l -0.009,-0.013 5.034,-3.016 0.006,0.006 1.902,-1.646 c 0.314,-0.271 1.927,-1.223 2.196,-0.915 l -0.098,-0.172 -0.46,-2.636 10.542,-5.079 1.942,-0.804 0.093,-0.458 c 0.271,-0.786 0.928,-1.623 1.889,-2.126 0.744,-0.265 2.535,-1.226 3.309,-1.172 l 4.366,-3.757 c -0.167,-0.208 0.751,-1.354 0.591,-1.565 l 0,0 c -0.413,-2.146 -0.232,-4.278 0.521,-6.037 -0.025,-0.042 0.15,-0.259 0.125,-0.301 -7.082,-12.76 -9.997,-27.302 -9.12,-42.217 0,-0.006 10e-4,-0.022 0.002,-0.028 v 0 l 0,0 c 1.19,-20.223 9.406,-38.786 24.265,-52.272 z" />
          <path
             style="opacity:0.01290002"
             inkscape:connector-curvature="0"
             id="path47"
             d="m 154.823,56.771 c -10.259,9.18 -17.968,21.415 -20.18,35.284 -0.347,2.168 -0.443,4.426 -0.49,6.654 -0.321,17.878 7.053,34.431 19.466,46.708 12.745,12.589 30.19,20.133 48.941,20.698 18.587,0.562 36.294,-5.827 49.518,-17.725 12.879,-11.572 20.727,-27.698 21.054,-45.399 0.078,-3.849 -0.096,-7.756 -0.837,-11.475 C 269.873,79.346 263.112,68.445 254.414,59.801 239.288,44.968 217.71,37.453 195.965,39.727 180.369,40.716 165.946,46.85 154.823,56.771 z m -6.805,-11.014 c 15.195,-13.741 35.511,-21.13 56.802,-20.531 0.006,0 0.022,0 0.028,0 10e-4,0 0.002,0 0.003,0 l 0,0 0,0 c 21.391,0.607 41.368,9.177 56.023,23.576 12.542,12.41 20.544,28.674 21.905,46.367 0.374,4.821 0.262,9.632 -0.323,14.386 -1.577,12.576 -6.846,24.183 -14.079,34.242 -5.813,8.689 -12.846,16.276 -21.754,22.137 -8.58,5.722 -18.245,9.564 -28.43,11.416 -19.446,3.524 -39.351,-0.134 -55.911,-9.712 -2.389,0.14 -4.801,0.175 -7.23,0.132 -0.956,-0.017 -2.049,-0.444 -2.985,-1.086 -0.135,-0.093 -0.49,-0.413 -0.631,-0.498 -0.953,-0.574 -3.543,0.249 -4.46,-0.395 -0.337,-0.236 -1.278,0.044 -1.61,-0.202 l -0.374,0.323 c -1.104,0.956 -4.554,3.137 -5.906,3.029 l -4.24,3.66 -0.813,1.109 c 0.242,1.02 -0.046,2.151 -0.621,3.114 -0.35,0.586 -1.509,1.854 -2.056,2.327 l -0.214,0.239 -1.187,2.781 c -0.146,0.462 -0.731,1.785 -0.999,2.186 -0.269,0.509 -0.621,0.976 -1.057,1.351 L 30.545,269.71 c -1.262,1.091 -5.198,3.418 -6.691,3.06 -0.168,-0.04 -0.602,0.141 -0.768,0.084 -0.723,0.07 -1.512,-0.254 -2.226,-0.727 -5.02,-3.326 -5.453,-3.954 -8.836,-8.661 -0.475,-0.661 -0.794,-1.389 -0.819,-1.985 -0.009,-0.013 0.005,-0.046 -0.004,-0.058 -0.002,-0.003 0,-0.009 -0.001,-0.012 -1.281,-1.655 0.912,-6.296 -0.212,-8.142 -1.278,-2.098 2.732,-7.993 4.622,-9.631 l 0.054,-0.049 85.613,-73.729 c 0.048,-0.042 0.293,-0.24 0.349,-0.266 l -0.011,-0.015 5.077,-2.885 0.006,0.006 1.896,-1.641 c 0.354,-0.306 1.938,-1.177 2.242,-0.831 l -0.055,-0.117 -0.26,-2.616 10.325,-5.352 1.903,-0.838 0.047,-0.466 c 0.195,-0.788 0.809,-1.659 1.76,-2.179 0.686,-0.243 2.542,-1.304 3.257,-1.255 l 4.349,-3.739 c -0.187,-0.234 0.627,-1.334 0.447,-1.572 l 0,0 c -0.485,-2.118 -0.415,-4.229 0.19,-5.997 -0.029,-0.048 0.129,-0.256 0.1,-0.304 -7.075,-12.663 -10.051,-27.121 -9.184,-41.98 10e-4,-0.006 10e-4,-0.022 0.002,-0.028 v -10e-4 l 0,0 c 1.183,-20.177 9.487,-38.643 24.301,-52.027 z" />
          <path
             style="opacity:0.0143"
             inkscape:connector-curvature="0"
             id="path49"
             d="m 154.732,56.202 c -10.415,9.273 -18.19,21.665 -20.445,35.72 -0.353,2.195 -0.465,4.477 -0.52,6.737 -0.378,17.99 6.992,34.65 19.428,47.014 12.74,12.65 30.236,20.298 49.124,20.905 18.737,0.604 36.541,-5.821 49.832,-17.721 12.973,-11.6 20.932,-27.797 21.315,-45.627 0.092,-3.899 -0.085,-7.848 -0.817,-11.613 C 270.256,79.283 263.51,68.215 254.725,59.44 239.802,44.732 218.517,37.112 196.883,39.106 c -15.994,0.817 -30.787,7.009 -42.151,17.096 z m -6.315,-10.185 c 15.12,-13.607 35.345,-20.961 56.592,-20.321 0.005,0 0.023,0 0.028,0 0.001,0 0.002,0 0.003,0 l 0,0 0,0 c 21.337,0.648 41.181,9.249 55.692,23.58 12.575,12.508 20.534,28.936 21.696,46.791 0.319,4.863 0.142,9.703 -0.514,14.471 -1.769,12.633 -7.248,24.24 -14.747,34.199 -5.945,8.488 -13.117,15.852 -22.08,21.482 -8.609,5.486 -18.273,9.122 -28.445,10.775 -19.425,3.146 -39.101,-0.852 -55.34,-10.621 -2.341,0.28 -4.714,0.465 -7.114,0.575 -0.945,0.044 -2.045,-0.366 -2.971,-1.013 -0.123,-0.086 -0.49,-0.427 -0.619,-0.504 -0.873,-0.526 -3.568,0.506 -4.409,-0.084 -0.309,-0.217 -1.29,0.142 -1.594,-0.084 l -0.371,0.32 c -1.013,0.876 -4.573,3.219 -5.813,3.12 l -4.213,3.636 -0.706,1.063 c 0.278,1.004 -0.007,2.133 -0.589,3.087 -0.326,0.534 -1.535,1.83 -2.036,2.265 l -0.191,0.226 -1.18,2.768 c -0.134,0.423 -0.744,1.809 -0.989,2.176 -0.252,0.496 -0.589,0.951 -1.009,1.313 l -96.846,83.537 c -1.157,1.001 -5.224,3.528 -6.592,3.199 -0.155,-0.036 -0.604,0.174 -0.755,0.122 -0.714,0.108 -1.503,-0.209 -2.215,-0.68 -5.162,-3.42 -5.303,-3.786 -8.752,-8.659 -0.47,-0.665 -0.767,-1.403 -0.739,-1.994 -0.008,-0.012 0.01,-0.046 10e-4,-0.058 -10e-4,-0.002 0.001,-0.009 0,-0.011 -1.174,-1.518 1.487,-6.328 0.456,-8.021 -1.171,-1.923 3.228,-7.946 4.96,-9.447 l 0.052,-0.047 85.309,-73.432 c 0.054,-0.046 0.289,-0.234 0.351,-0.263 l -0.012,-0.017 5.12,-2.755 0.007,0.007 1.89,-1.635 c 0.394,-0.34 1.949,-1.132 2.287,-0.747 l -0.011,-0.063 -0.06,-2.598 10.107,-5.623 1.865,-0.872 10e-4,-0.474 c 0.118,-0.791 0.689,-1.695 1.63,-2.23 0.629,-0.224 2.551,-1.383 3.205,-1.338 l 4.333,-3.723 c -0.208,-0.261 0.502,-1.314 0.303,-1.579 l 0,0 c -0.557,-2.091 -0.597,-4.179 -0.14,-5.958 -0.032,-0.053 0.106,-0.253 0.074,-0.306 -7.068,-12.566 -10.104,-26.94 -9.247,-41.744 0.001,-0.005 0.001,-0.023 0.002,-0.028 v -10e-4 l 0,0 c 1.172,-20.13 9.565,-38.502 24.335,-51.782 z" />
          <path
             style="opacity:0.01569998"
             inkscape:connector-curvature="0"
             id="path51"
             d="m 154.64,55.634 c -10.571,9.368 -18.413,21.916 -20.71,36.155 -0.359,2.223 -0.487,4.528 -0.55,6.82 -0.435,18.102 6.934,34.87 19.391,47.318 12.736,12.712 30.283,20.463 49.308,21.113 18.886,0.647 36.787,-5.815 50.145,-17.717 13.068,-11.628 21.137,-27.896 21.579,-45.854 0.104,-3.952 -0.076,-7.939 -0.799,-11.752 -2.363,-12.5 -9.096,-23.734 -17.968,-32.641 -14.72,-14.582 -35.71,-22.308 -57.234,-20.593 -16.393,0.648 -31.555,6.899 -43.162,17.151 z m -5.822,-9.358 c 15.044,-13.475 35.177,-20.792 56.381,-20.111 0.005,0 0.023,0 0.028,0 h 0.002 v 0.001 l 0,0 c 21.285,0.689 40.994,9.321 55.361,23.582 12.609,12.607 20.526,29.197 21.487,47.217 0.265,4.905 0.023,9.772 -0.704,14.556 -1.959,12.689 -7.649,24.296 -15.414,34.155 -6.077,8.288 -13.389,15.426 -22.406,20.828 -8.638,5.252 -18.303,8.679 -28.461,10.134 -19.404,2.769 -38.852,-1.567 -54.769,-11.53 -2.293,0.423 -4.629,0.753 -6.999,1.019 -0.934,0.104 -2.036,-0.289 -2.954,-0.938 -0.112,-0.079 -0.49,-0.439 -0.607,-0.511 -0.795,-0.479 -3.596,0.764 -4.359,0.229 -0.281,-0.197 -1.301,0.239 -1.578,0.034 l -0.366,0.315 c -0.921,0.798 -4.594,3.301 -5.721,3.212 l -4.186,3.611 -0.602,1.017 c 0.316,0.988 0.035,2.114 -0.555,3.059 -0.301,0.481 -1.562,1.808 -2.018,2.202 l -0.168,0.212 -1.174,2.753 c -0.121,0.385 -0.757,1.833 -0.98,2.166 -0.234,0.483 -0.556,0.928 -0.959,1.275 L 30.76,267.837 c -1.052,0.909 -5.25,3.637 -6.494,3.339 -0.14,-0.034 -0.604,0.207 -0.743,0.159 -0.705,0.147 -1.496,-0.163 -2.204,-0.632 -5.304,-3.515 -5.155,-3.62 -8.668,-8.657 -0.466,-0.668 -0.74,-1.419 -0.658,-2.005 -0.008,-0.01 0.014,-0.046 0.006,-0.056 -0.002,-0.002 0.002,-0.009 0,-0.011 -1.067,-1.38 2.062,-6.361 1.125,-7.898 -1.065,-1.748 3.724,-7.899 5.299,-9.266 l 0.05,-0.044 85.006,-73.133 c 0.06,-0.052 0.284,-0.23 0.353,-0.261 l -0.014,-0.019 5.163,-2.624 0.008,0.007 1.883,-1.629 c 0.433,-0.375 1.961,-1.086 2.332,-0.663 l 0.033,-0.009 0.141,-2.578 9.891,-5.896 1.825,-0.905 -0.044,-0.481 c 0.041,-0.793 0.569,-1.731 1.5,-2.283 0.572,-0.203 2.559,-1.462 3.154,-1.421 l 4.315,-3.706 c -0.229,-0.285 0.379,-1.293 0.158,-1.586 l 0,0 c -0.627,-2.062 -0.778,-4.127 -0.468,-5.917 -0.036,-0.058 0.084,-0.25 0.049,-0.308 -7.062,-12.47 -10.158,-26.76 -9.311,-41.509 0,-0.005 10e-4,-0.023 10e-4,-0.028 l 0,0 0,0 c 1.162,-20.087 9.641,-38.364 24.37,-51.541 z" />
          <path
             style="opacity:0.01710002"
             inkscape:connector-curvature="0"
             id="path53"
             d="m 154.549,55.065 c -10.728,9.462 -18.636,22.166 -20.976,36.591 -0.365,2.25 -0.509,4.579 -0.579,6.903 -0.491,18.214 6.873,35.09 19.353,47.624 12.731,12.773 30.329,20.628 49.49,21.32 19.036,0.69 37.034,-5.81 50.459,-17.713 13.162,-11.655 21.342,-27.995 21.841,-46.081 0.118,-4.003 -0.065,-8.031 -0.779,-11.891 C 271.024,79.154 264.306,67.753 255.347,58.715 240.83,44.258 220.133,36.427 198.72,37.862 c -16.791,0.476 -32.323,6.785 -44.171,17.203 z m -5.332,-8.529 c 14.969,-13.341 35.011,-20.623 56.171,-19.901 0.004,0 0.024,0 0.028,0 h 0.002 v 10e-4 l 0,0 c 21.231,0.73 40.807,9.394 55.03,23.586 12.643,12.705 20.517,29.459 21.278,47.641 0.21,4.947 -0.097,9.844 -0.895,14.641 -2.15,12.746 -8.052,24.354 -16.082,34.112 -6.209,8.087 -13.66,15.001 -22.732,20.174 -8.667,5.017 -18.331,8.236 -28.477,9.493 -19.383,2.391 -38.602,-2.285 -54.197,-12.439 -2.245,0.563 -4.543,1.042 -6.883,1.462 -0.924,0.166 -2.031,-0.211 -2.939,-0.865 -0.101,-0.072 -0.49,-0.453 -0.596,-0.517 -0.715,-0.431 -3.621,1.021 -4.309,0.539 -0.253,-0.178 -1.313,0.337 -1.562,0.152 l -0.363,0.313 c -0.829,0.718 -4.613,3.383 -5.628,3.303 l -4.158,3.587 -0.495,0.97 c 0.353,0.973 0.074,2.096 -0.522,3.031 -0.275,0.432 -1.588,1.784 -1.998,2.14 l -0.146,0.198 -1.167,2.739 c -0.109,0.346 -0.77,1.856 -0.971,2.156 -0.218,0.471 -0.523,0.903 -0.911,1.237 l -95.828,82.61 c -0.946,0.819 -5.275,3.747 -6.395,3.479 -0.126,-0.03 -0.606,0.24 -0.73,0.197 -0.696,0.186 -1.487,-0.118 -2.193,-0.585 -5.446,-3.608 -5.008,-3.451 -8.583,-8.655 -0.461,-0.672 -0.713,-1.434 -0.578,-2.014 -0.007,-0.009 0.018,-0.046 0.011,-0.056 -10e-4,-10e-4 0.003,-0.009 0.002,-0.01 -0.961,-1.242 2.637,-6.394 1.793,-7.777 -0.958,-1.573 4.22,-7.853 5.637,-9.082 l 0.048,-0.042 84.703,-72.835 c 0.064,-0.056 0.279,-0.225 0.354,-0.258 l -0.015,-0.021 5.206,-2.494 0.008,0.008 1.877,-1.623 c 0.473,-0.409 1.972,-1.041 2.377,-0.579 l 0.077,0.046 0.34,-2.56 9.674,-6.167 1.787,-0.939 -0.09,-0.489 c -0.036,-0.796 0.45,-1.768 1.37,-2.335 0.516,-0.184 2.567,-1.541 3.103,-1.504 l 4.3,-3.689 c -0.25,-0.312 0.254,-1.273 0.014,-1.593 l 0,0 c -0.698,-2.034 -0.96,-4.077 -0.798,-5.878 -0.039,-0.063 0.062,-0.247 0.023,-0.31 -7.055,-12.373 -10.211,-26.579 -9.374,-41.272 0,-0.004 0.001,-0.024 0.001,-0.028 l 0,0 0,0 c 1.148,-20.042 9.717,-38.225 24.401,-51.298 z" />
          <path
             style="opacity:0.01859999"
             inkscape:connector-curvature="0"
             id="path55"
             d="m 154.458,54.497 c -10.884,9.556 -18.858,22.417 -21.241,37.026 -0.371,2.277 -0.53,4.63 -0.608,6.985 -0.549,18.327 6.813,35.311 19.314,47.931 12.728,12.835 30.375,20.792 49.673,21.527 19.187,0.732 37.282,-5.804 50.773,-17.708 13.257,-11.684 21.547,-28.096 22.104,-46.31 0.131,-4.055 -0.057,-8.123 -0.76,-12.028 -2.306,-12.829 -9.009,-24.396 -18.055,-33.566 -14.314,-14.331 -34.717,-22.268 -56.021,-21.111 -17.188,0.303 -33.09,6.67 -45.179,17.254 z m -4.841,-7.702 c 14.894,-13.207 34.845,-20.453 55.961,-19.689 0.004,0 0.024,0 0.028,0 h 0.002 l 0,0 0,0 c 21.178,0.772 40.62,9.467 54.699,23.59 12.676,12.803 20.507,29.721 21.068,48.064 0.156,4.989 -0.216,9.914 -1.085,14.726 -2.34,12.803 -8.453,24.411 -16.75,34.069 -6.34,7.887 -13.932,14.576 -23.058,19.52 -8.695,4.782 -18.36,7.794 -28.491,8.853 -19.362,2.012 -38.353,-3.002 -53.627,-13.35 -2.197,0.706 -4.456,1.333 -6.767,1.906 -0.914,0.227 -2.026,-0.13 -2.925,-0.792 -0.088,-0.064 -0.489,-0.467 -0.583,-0.523 -0.636,-0.383 -3.648,1.278 -4.259,0.851 -0.226,-0.158 -1.324,0.435 -1.546,0.271 l -0.359,0.31 c -0.736,0.638 -4.633,3.465 -5.534,3.394 l -4.131,3.563 -0.39,0.924 c 0.389,0.956 0.115,2.077 -0.489,3.003 -0.248,0.381 -1.614,1.762 -1.979,2.077 l -0.122,0.185 -1.162,2.726 c -0.097,0.308 -0.781,1.879 -0.96,2.146 -0.202,0.459 -0.491,0.88 -0.863,1.2 l -95.318,82.147 c -0.841,0.728 -5.3,3.856 -6.295,3.617 -0.112,-0.026 -0.608,0.273 -0.718,0.235 -0.688,0.225 -1.479,-0.072 -2.182,-0.537 -5.589,-3.703 -4.858,-3.284 -8.499,-8.654 -0.458,-0.675 -0.686,-1.447 -0.498,-2.022 -0.006,-0.008 0.022,-0.047 0.016,-0.055 -10e-4,-0.001 0.004,-0.009 0.002,-0.011 -0.854,-1.104 3.212,-6.425 2.462,-7.655 -0.852,-1.398 4.716,-7.806 5.976,-8.898 l 0.046,-0.04 84.398,-72.537 c 0.07,-0.061 0.274,-0.219 0.355,-0.255 l -0.016,-0.022 5.249,-2.363 0.009,0.008 1.87,-1.617 c 0.512,-0.443 1.983,-0.995 2.422,-0.495 l 0.121,0.101 0.54,-2.54 9.457,-6.439 1.748,-0.974 -0.136,-0.497 c -0.112,-0.798 0.331,-1.804 1.241,-2.388 0.457,-0.162 2.574,-1.619 3.051,-1.587 l 4.282,-3.672 c -0.27,-0.338 0.13,-1.254 -0.13,-1.6 l 0,0 c -0.771,-2.006 -1.143,-4.027 -1.128,-5.838 -0.043,-0.068 0.04,-0.244 -0.002,-0.313 -7.048,-12.276 -10.265,-26.398 -9.438,-41.036 10e-4,-0.004 10e-4,-0.024 10e-4,-0.028 l 0,0 0,0 c 1.139,-20.001 9.795,-38.088 24.436,-51.059 z" />
          <path
             style="opacity:0.02000002"
             inkscape:connector-curvature="0"
             id="path57"
             d="m 154.368,53.929 c -11.04,9.649 -19.081,22.668 -21.506,37.462 -0.379,2.304 -0.553,4.681 -0.639,7.068 -0.605,18.439 6.752,35.53 19.275,48.236 12.725,12.896 30.422,20.956 49.856,21.734 19.337,0.775 37.529,-5.798 51.087,-17.704 13.352,-11.712 21.753,-28.195 22.367,-46.537 0.144,-4.105 -0.047,-8.215 -0.741,-12.166 -2.276,-12.994 -8.966,-24.729 -18.098,-34.03 -14.112,-14.206 -34.22,-22.247 -55.413,-21.37 -17.587,0.131 -33.858,6.557 -46.188,17.307 z m -4.352,-6.874 c 14.818,-13.074 34.679,-20.285 55.751,-19.479 0.003,0 0.024,0 0.028,0 h 0.002 v 0.001 l 0,0 c 21.125,0.813 40.433,9.538 54.368,23.593 12.709,12.9 20.497,29.982 20.859,48.489 0.101,5.03 -0.336,9.983 -1.276,14.81 -2.53,12.859 -8.854,24.469 -17.417,34.027 -6.472,7.686 -14.203,14.15 -23.384,18.865 -8.724,4.547 -18.389,7.351 -28.507,8.21 -19.342,1.634 -38.103,-3.718 -53.055,-14.258 -2.151,0.847 -4.371,1.623 -6.651,2.349 -0.903,0.287 -2.021,-0.051 -2.91,-0.718 -0.076,-0.058 -0.488,-0.48 -0.57,-0.529 -0.557,-0.335 -3.675,1.536 -4.21,1.161 -0.196,-0.139 -1.335,0.532 -1.528,0.389 l -0.355,0.307 c -0.645,0.558 -4.653,3.547 -5.442,3.484 l -4.104,3.538 -0.284,0.877 c 0.427,0.941 0.154,2.057 -0.456,2.975 -0.221,0.331 -1.641,1.74 -1.96,2.017 l -0.1,0.17 -1.155,2.711 c -0.085,0.27 -0.794,1.903 -0.95,2.137 -0.186,0.445 -0.458,0.855 -0.815,1.162 l -94.809,81.685 c -0.736,0.637 -5.326,3.966 -6.197,3.757 -0.099,-0.023 -0.609,0.306 -0.706,0.272 -0.678,0.263 -1.471,-0.026 -2.171,-0.49 -5.731,-3.797 -4.715,-3.112 -8.415,-8.652 -0.453,-0.678 -0.659,-1.462 -0.417,-2.031 -0.006,-0.007 0.026,-0.047 0.021,-0.054 -0.001,-0.002 0.005,-0.01 0.004,-0.011 -0.748,-0.966 3.787,-6.458 3.13,-7.534 -0.746,-1.224 5.211,-7.759 6.314,-8.715 l 0.044,-0.039 84.095,-72.238 c 0.075,-0.064 0.27,-0.213 0.357,-0.252 l -0.018,-0.023 5.292,-2.234 0.009,0.01 1.864,-1.613 c 0.551,-0.477 1.994,-0.948 2.467,-0.41 l 0.166,0.155 0.739,-2.521 9.239,-6.712 1.71,-1.007 -0.182,-0.505 c -0.189,-0.8 0.212,-1.839 1.111,-2.439 0.4,-0.143 2.583,-1.698 3,-1.67 l 4.266,-3.655 c -0.291,-0.363 0.006,-1.234 -0.274,-1.606 l 0,0 c -0.842,-1.979 -1.325,-3.977 -1.458,-5.799 -0.046,-0.073 0.018,-0.241 -0.027,-0.314 -7.041,-12.179 -10.318,-26.218 -9.5,-40.8 0,-0.003 0,-0.024 10e-4,-0.028 l 0,0 0,0 c 1.124,-19.956 9.869,-37.948 24.466,-50.815 z" />
          <path
             style="opacity:0.0214"
             inkscape:connector-curvature="0"
             id="path59"
             d="m 154.276,53.36 c -11.195,9.743 -19.303,22.918 -21.771,37.897 -0.385,2.331 -0.575,4.731 -0.668,7.151 -0.663,18.551 6.692,35.75 19.237,48.542 12.72,12.958 30.468,21.121 50.039,21.941 19.487,0.818 37.776,-5.792 51.401,-17.7 13.446,-11.739 21.958,-28.294 22.629,-46.765 0.157,-4.157 -0.037,-8.306 -0.722,-12.305 C 272.174,78.963 265.499,67.061 256.28,57.629 242.371,43.548 222.556,35.401 201.473,35.999 183.489,35.961 166.848,42.444 154.276,53.36 z m -3.859,-6.046 c 14.742,-12.94 34.512,-20.116 55.54,-19.27 0.003,0 0.025,0 0.028,0 h 0.002 v 0.001 l 0,0 c 21.071,0.854 40.245,9.611 54.037,23.596 12.742,13 20.488,30.245 20.65,48.914 0.046,5.072 -0.456,10.055 -1.467,14.895 -2.722,12.916 -9.256,24.525 -18.085,33.984 -6.604,7.484 -14.475,13.726 -23.71,18.211 -8.753,4.312 -18.417,6.907 -28.522,7.569 -19.32,1.256 -37.853,-4.436 -52.483,-15.168 -2.104,0.989 -4.284,1.914 -6.535,2.793 -0.893,0.349 -2.013,0.025 -2.895,-0.645 -0.065,-0.05 -0.489,-0.493 -0.56,-0.536 -0.477,-0.287 -3.7,1.794 -4.159,1.473 -0.168,-0.118 -1.347,0.63 -1.513,0.507 l -0.352,0.303 c -0.553,0.479 -4.673,3.63 -5.35,3.576 l -4.075,3.514 -0.179,0.831 c 0.463,0.925 0.195,2.036 -0.423,2.946 -0.191,0.282 -1.668,1.717 -1.941,1.954 l -0.076,0.156 -1.149,2.697 c -0.073,0.23 -0.807,1.927 -0.94,2.127 -0.169,0.433 -0.426,0.831 -0.768,1.124 l -94.299,81.221 c -0.631,0.546 -5.352,4.075 -6.098,3.896 -0.084,-0.021 -0.611,0.339 -0.693,0.311 -0.669,0.302 -1.463,0.019 -2.16,-0.443 -5.874,-3.891 -4.572,-2.941 -8.331,-8.649 -0.449,-0.682 -0.631,-1.478 -0.337,-2.041 -0.005,-0.006 0.031,-0.047 0.026,-0.054 -10e-4,-0.001 0.006,-0.009 0.005,-0.01 -0.641,-0.828 4.362,-6.49 3.799,-7.413 -0.639,-1.049 5.708,-7.712 6.652,-8.531 l 0.042,-0.037 83.791,-71.939 c 0.081,-0.07 0.266,-0.209 0.359,-0.25 l -0.019,-0.025 5.335,-2.104 0.01,0.01 1.857,-1.607 c 0.591,-0.511 2.006,-0.903 2.512,-0.326 l 0.21,0.21 0.939,-2.503 9.022,-6.983 1.67,-1.041 -0.227,-0.513 c -0.267,-0.803 0.093,-1.875 0.981,-2.492 0.344,-0.122 2.592,-1.777 2.948,-1.752 l 4.25,-3.639 c -0.313,-0.39 -0.119,-1.215 -0.419,-1.613 l 0,0 c -0.913,-1.951 -1.507,-3.927 -1.788,-5.76 -0.049,-0.078 -0.004,-0.238 -0.052,-0.316 -7.034,-12.082 -10.372,-26.037 -9.564,-40.563 0,-0.003 0.001,-0.025 0.001,-0.028 l 0,0 0,0 c 1.116,-19.906 9.948,-37.804 24.503,-50.568 z" />
          <path
             style="opacity:0.02289997"
             inkscape:connector-curvature="0"
             id="path61"
             d="m 154.185,52.791 c -11.352,9.838 -19.525,23.17 -22.036,38.334 -0.391,2.358 -0.597,4.782 -0.697,7.233 -0.72,18.664 6.632,35.97 19.199,48.849 12.716,13.02 30.514,21.285 50.222,22.148 19.638,0.86 38.024,-5.787 51.716,-17.695 13.54,-11.768 22.163,-28.395 22.892,-46.993 0.17,-4.208 -0.027,-8.397 -0.702,-12.442 C 272.559,78.902 265.9,66.834 256.594,57.269 242.887,43.314 223.367,35.061 202.395,35.379 184.009,35.168 166.998,41.71 154.185,52.791 z m -3.369,-5.218 c 14.668,-12.807 34.346,-19.946 55.33,-19.058 0.002,0 0.025,0 0.027,0 0.001,0 0.002,0 0.003,0 l 0,0 0,0 c 21.018,0.896 40.059,9.684 53.706,23.6 12.776,13.098 20.479,30.507 20.44,49.338 -0.008,5.114 -0.575,10.125 -1.657,14.979 -2.911,12.973 -9.657,24.583 -18.753,33.941 -6.733,7.284 -14.746,13.301 -24.036,17.557 -8.78,4.077 -18.445,6.465 -28.536,6.929 -19.3,0.877 -37.604,-5.152 -51.913,-16.077 -2.056,1.13 -4.195,2.209 -6.419,3.236 -0.882,0.411 -2.005,0.102 -2.88,-0.571 -0.054,-0.041 -0.488,-0.507 -0.547,-0.542 -0.397,-0.239 -3.728,2.051 -4.109,1.783 -0.141,-0.099 -1.358,0.728 -1.496,0.625 l -0.349,0.3 c -0.46,0.398 -4.692,3.712 -5.256,3.668 l -4.049,3.487 -0.072,0.785 c 0.499,0.909 0.235,2.017 -0.391,2.919 -0.162,0.233 -1.693,1.694 -1.921,1.892 l -0.055,0.144 -1.144,2.683 c -0.061,0.192 -0.818,1.949 -0.93,2.116 -0.153,0.421 -0.394,0.808 -0.72,1.088 l -93.79,80.757 c -0.526,0.455 -5.377,4.185 -5.999,4.035 -0.07,-0.017 -0.612,0.372 -0.682,0.349 -0.66,0.34 -1.454,0.064 -2.149,-0.396 -6.016,-3.986 -4.428,-2.771 -8.247,-8.648 -0.445,-0.685 -0.604,-1.491 -0.257,-2.05 -0.004,-0.006 0.035,-0.048 0.031,-0.053 -0.001,-0.001 0.006,-0.01 0.006,-0.011 -0.534,-0.689 4.936,-6.521 4.468,-7.291 -0.533,-0.874 6.203,-7.665 6.991,-8.348 l 0.041,-0.035 83.488,-71.642 c 0.086,-0.074 0.261,-0.203 0.36,-0.248 l -0.02,-0.026 5.377,-1.974 0.011,0.011 1.853,-1.602 c 0.629,-0.545 2.016,-0.857 2.556,-0.242 l 0.254,0.265 1.139,-2.483 8.806,-7.256 1.632,-1.075 -0.271,-0.521 c -0.344,-0.804 -0.027,-1.91 0.852,-2.543 0.285,-0.102 2.599,-1.856 2.896,-1.836 l 4.232,-3.621 c -0.332,-0.416 -0.243,-1.195 -0.563,-1.62 l 0,0 c -0.985,-1.923 -1.689,-3.877 -2.118,-5.72 -0.053,-0.084 -0.026,-0.235 -0.077,-0.319 -7.027,-11.985 -10.426,-25.856 -9.628,-40.327 10e-4,-0.002 10e-4,-0.025 10e-4,-0.027 v -10e-4 l 0,0 c 1.102,-19.861 10.023,-37.662 24.534,-50.324 z" />
          <path
             style="opacity:0.02430001"
             inkscape:connector-curvature="0"
             id="path63"
             d="m 154.094,52.223 c -11.508,9.932 -19.748,23.421 -22.302,38.77 -0.397,2.386 -0.618,4.833 -0.727,7.316 -0.777,18.776 6.571,36.189 19.161,49.154 12.712,13.081 30.56,21.449 50.404,22.355 19.788,0.903 38.271,-5.781 52.029,-17.691 13.636,-11.796 22.369,-28.494 23.155,-47.221 0.183,-4.26 -0.019,-8.489 -0.684,-12.58 -2.19,-13.488 -8.836,-25.723 -18.228,-35.42 -13.505,-13.829 -32.729,-22.188 -53.593,-22.148 -18.78,-0.382 -36.161,6.218 -49.215,17.465 z m -2.879,-4.39 c 14.593,-12.674 34.18,-19.777 55.12,-18.848 0.002,0 0.025,0 0.027,0 0.001,0 0.002,0 0.003,0 v 0.001 l 0,0 c 20.965,0.938 39.871,9.756 53.375,23.603 12.81,13.195 20.469,30.769 20.231,49.763 -0.063,5.155 -0.695,10.194 -1.849,15.063 -3.102,13.029 -10.059,24.641 -19.42,33.898 -6.865,7.084 -15.018,12.876 -24.362,16.902 -8.809,3.843 -18.474,6.022 -28.552,6.287 -19.279,0.499 -37.354,-5.868 -51.342,-16.986 -2.008,1.272 -4.109,2.499 -6.303,3.68 -0.871,0.473 -1.998,0.182 -2.865,-0.497 -0.043,-0.033 -0.487,-0.521 -0.534,-0.549 -0.318,-0.191 -3.754,2.309 -4.06,2.095 -0.112,-0.079 -1.37,0.825 -1.48,0.743 l -0.344,0.297 c -0.368,0.318 -4.713,3.794 -5.164,3.759 l -4.021,3.463 0.032,0.739 c 0.537,0.894 0.278,1.997 -0.356,2.891 -0.132,0.186 -1.721,1.672 -1.902,1.829 l -0.031,0.13 -1.138,2.668 c -0.049,0.154 -0.831,1.974 -0.92,2.107 -0.137,0.407 -0.361,0.783 -0.672,1.05 l -93.28,80.294 c -0.421,0.363 -5.403,4.294 -5.9,4.175 -0.056,-0.014 -0.614,0.404 -0.669,0.386 -0.651,0.379 -1.446,0.11 -2.138,-0.349 -6.158,-4.08 -4.284,-2.601 -8.162,-8.646 -0.441,-0.688 -0.578,-1.506 -0.177,-2.059 -0.003,-0.005 0.04,-0.048 0.036,-0.052 0,-10e-4 0.007,-0.01 0.007,-0.011 -0.427,-0.552 5.511,-6.555 5.137,-7.17 -0.426,-0.699 6.699,-7.618 7.329,-8.164 l 0.039,-0.033 83.184,-71.344 c 0.092,-0.079 0.257,-0.197 0.362,-0.245 l -0.021,-0.028 5.42,-1.843 0.012,0.011 1.846,-1.596 c 0.668,-0.579 2.027,-0.812 2.602,-0.158 l 0.297,0.319 1.339,-2.465 8.589,-7.528 1.593,-1.108 -0.317,-0.529 c -0.421,-0.806 -0.146,-1.946 0.722,-2.596 0.229,-0.081 2.607,-1.935 2.846,-1.918 l 4.216,-3.604 c -0.354,-0.441 -0.367,-1.176 -0.707,-1.627 l 0,0 c -1.057,-1.896 -1.872,-3.826 -2.448,-5.681 -0.056,-0.089 -0.048,-0.232 -0.103,-0.321 -7.021,-11.888 -10.479,-25.676 -9.69,-40.091 0,-0.002 0,-0.025 0,-0.027 v -10e-4 l 0,0 c 1.088,-19.814 10.097,-37.52 24.563,-50.079 z" />
          <path
             style="opacity:0.02569999"
             inkscape:connector-curvature="0"
             id="path65"
             d="m 154.003,51.654 c -11.665,10.026 -19.972,23.671 -22.567,39.205 -0.403,2.413 -0.64,4.884 -0.756,7.399 -0.834,18.889 6.511,36.409 19.123,49.46 12.707,13.142 30.605,21.614 50.588,22.563 19.938,0.946 38.518,-5.775 52.343,-17.688 13.729,-11.823 22.573,-28.593 23.417,-47.448 0.196,-4.311 -0.008,-8.581 -0.664,-12.719 C 273.326,78.773 266.695,66.372 257.216,56.544 243.915,42.84 224.984,34.376 204.232,34.136 185.049,33.583 167.298,40.241 154.003,51.654 z m -2.388,-3.561 c 14.518,-12.54 34.013,-19.608 54.91,-18.638 0.001,0 0.026,0 0.027,0 h 0.002 v 0.001 l 0,0 c 20.912,0.979 39.685,9.828 53.044,23.606 12.844,13.293 20.46,31.029 20.022,50.187 -0.117,5.198 -0.814,10.266 -2.038,15.149 -3.293,13.085 -10.461,24.697 -20.088,33.854 -6.997,6.883 -15.289,12.45 -24.688,16.248 -8.838,3.607 -18.503,5.58 -28.567,5.646 -19.258,0.121 -37.104,-6.586 -50.771,-17.896 -1.96,1.413 -4.022,2.788 -6.188,4.123 -0.859,0.533 -1.99,0.261 -2.85,-0.424 -0.032,-0.025 -0.487,-0.534 -0.522,-0.555 -0.238,-0.144 -3.78,2.565 -4.009,2.405 -0.085,-0.06 -1.381,0.924 -1.464,0.862 l -0.341,0.293 c -0.276,0.239 -4.732,3.876 -5.07,3.85 l -3.994,3.438 0.139,0.692 c 0.573,0.878 0.319,1.977 -0.324,2.863 -0.1,0.138 -1.746,1.648 -1.883,1.767 l -0.009,0.116 -1.131,2.654 c -0.036,0.115 -0.844,1.997 -0.911,2.097 -0.119,0.396 -0.328,0.76 -0.622,1.013 l -92.772,79.83 c -0.315,0.273 -5.428,4.404 -5.801,4.314 -0.042,-0.01 -0.616,0.438 -0.657,0.424 -0.642,0.417 -1.438,0.155 -2.127,-0.301 -6.3,-4.175 -4.142,-2.43 -8.078,-8.646 -0.437,-0.69 -0.55,-1.521 -0.097,-2.068 -0.002,-0.003 0.044,-0.048 0.042,-0.051 0,0 0.008,-0.01 0.008,-0.01 -0.32,-0.414 6.086,-6.587 5.805,-7.048 -0.319,-0.524 7.195,-7.571 7.668,-7.981 l 0.036,-0.031 82.881,-71.046 c 0.097,-0.083 0.252,-0.191 0.363,-0.242 l -0.021,-0.03 5.463,-1.713 0.012,0.012 1.84,-1.59 c 0.708,-0.613 2.038,-0.767 2.646,-0.074 l 0.341,0.373 1.539,-2.445 8.371,-7.8 1.555,-1.143 -0.363,-0.537 c -0.498,-0.809 -0.266,-1.982 0.592,-2.647 0.172,-0.062 2.615,-2.014 2.794,-2.002 l 4.199,-3.587 c -0.374,-0.468 -0.491,-1.156 -0.852,-1.635 l 0,0 c -1.127,-1.866 -2.053,-3.775 -2.777,-5.64 -0.059,-0.095 -0.07,-0.229 -0.128,-0.324 -7.014,-11.791 -10.532,-25.494 -9.754,-39.854 0,-0.001 0,-0.026 0,-0.027 v -10e-4 l 0,0 c 1.077,-19.765 10.175,-37.376 24.598,-49.831 z" />
          <path
             style="opacity:0.02710003"
             inkscape:connector-curvature="0"
             id="path67"
             d="m 153.912,51.086 c -11.82,10.12 -20.193,23.922 -22.831,39.641 -0.41,2.439 -0.663,4.935 -0.786,7.482 -0.892,19 6.451,36.629 19.084,49.766 12.704,13.203 30.652,21.778 50.771,22.77 20.088,0.989 38.765,-5.77 52.657,-17.684 13.824,-11.851 22.778,-28.692 23.68,-47.676 0.209,-4.362 10e-4,-8.672 -0.646,-12.856 -2.132,-13.818 -8.748,-26.386 -18.314,-36.346 -13.099,-13.579 -31.735,-22.147 -52.378,-22.667 -19.58,-0.725 -37.7,5.991 -51.237,17.57 z m -1.897,-2.733 c 14.441,-12.407 33.846,-19.44 54.699,-18.428 0.001,0 0.026,0 0.027,0 h 0.002 v 10e-4 l 0,0 c 20.858,1.021 39.497,9.901 52.713,23.609 12.877,13.393 20.451,31.292 19.813,50.611 -0.172,5.24 -0.935,10.336 -2.229,15.234 -3.483,13.142 -10.861,24.754 -20.755,33.813 -7.129,6.682 -15.561,12.024 -25.015,15.594 -8.866,3.372 -18.531,5.136 -28.583,5.005 -19.236,-0.258 -36.854,-7.303 -50.198,-18.806 -1.914,1.556 -3.937,3.078 -6.072,4.567 -0.849,0.593 -1.977,0.332 -2.834,-0.351 -0.021,-0.018 -0.487,-0.547 -0.511,-0.562 -0.159,-0.096 -3.807,2.824 -3.96,2.717 -0.056,-0.039 -1.392,1.021 -1.447,0.98 l -0.337,0.289 c -0.184,0.16 -4.752,3.959 -4.978,3.941 l -3.966,3.414 0.244,0.646 c 0.609,0.861 0.506,2.086 -0.291,2.834 -0.05,0.103 -1.773,1.627 -1.864,1.706 l 0.015,0.102 -1.125,2.641 c -0.024,0.076 -0.856,2.021 -0.901,2.087 -0.103,0.383 -0.295,0.735 -0.574,0.975 l -92.263,79.367 c -0.21,0.182 -5.454,4.513 -5.703,4.453 -0.028,-0.007 -0.617,0.472 -0.645,0.462 -0.633,0.456 -1.43,0.201 -2.116,-0.254 -6.443,-4.269 -4.005,-2.255 -7.994,-8.643 -0.433,-0.693 -0.523,-1.536 -0.017,-2.078 -0.001,-0.002 0.048,-0.048 0.046,-0.05 0,-0.001 0.009,-0.01 0.009,-0.01 -0.213,-0.276 6.661,-6.619 6.474,-6.927 -0.213,-0.35 7.691,-7.524 8.006,-7.798 l 0.034,-0.03 82.577,-70.746 c 0.103,-0.089 0.247,-0.188 0.366,-0.24 l -0.023,-0.031 5.506,-1.583 0.013,0.013 1.833,-1.586 c 0.747,-0.646 2.05,-0.72 2.691,0.011 l 0.385,0.428 1.739,-2.427 8.154,-8.071 1.515,-1.177 -0.408,-0.545 c -0.575,-0.811 -0.385,-2.018 0.462,-2.7 0.115,-0.041 2.624,-2.093 2.743,-2.084 l 4.183,-3.57 c -0.396,-0.494 -0.616,-1.137 -0.996,-1.642 l 0,0 c -1.198,-1.839 -2.235,-3.726 -3.107,-5.601 -0.062,-0.1 -0.092,-0.227 -0.152,-0.326 -7.007,-11.694 -10.587,-25.313 -9.818,-39.618 0,-10e-4 10e-4,-0.026 10e-4,-0.027 v -10e-4 l 0,0 c 1.067,-19.72 10.251,-37.237 24.632,-49.588 z" />
          <path
             style="opacity:0.0286"
             inkscape:connector-curvature="0"
             id="path69"
             d="m 153.821,50.518 c -11.977,10.214 -20.416,24.172 -23.097,40.076 -0.417,2.467 -0.685,4.985 -0.815,7.564 -0.948,19.113 6.391,36.85 19.046,50.072 12.699,13.265 30.698,21.943 50.954,22.977 20.238,1.031 39.013,-5.764 52.971,-17.679 13.919,-11.88 22.984,-28.792 23.942,-47.904 0.223,-4.413 0.012,-8.764 -0.625,-12.995 C 274.093,78.647 267.491,65.913 257.839,55.821 244.943,42.367 226.6,33.693 206.068,32.894 186.089,31.998 167.599,38.772 153.821,50.518 z m -1.406,-1.907 c 14.366,-12.272 33.68,-19.271 54.489,-18.216 h 0.027 0.002 v 0.001 l 0,0 c 20.806,1.061 39.311,9.973 52.382,23.612 12.91,13.49 20.441,31.554 19.604,51.036 -0.227,5.281 -1.054,10.406 -2.419,15.318 -3.674,13.198 -11.264,24.812 -21.424,33.77 -7.26,6.48 -15.832,11.6 -25.34,14.939 -8.896,3.137 -18.561,4.693 -28.598,4.363 -19.217,-0.635 -36.605,-8.02 -49.628,-19.714 -1.866,1.696 -3.851,3.367 -5.956,5.01 -0.839,0.654 -1.976,0.42 -2.819,-0.276 -0.011,-0.009 -0.487,-0.561 -0.499,-0.567 -0.079,-0.048 -3.833,3.081 -3.909,3.027 -0.028,-0.02 -1.403,1.119 -1.431,1.099 l -0.333,0.286 c -0.093,0.08 -4.772,4.041 -4.885,4.032 l -3.939,3.39 0.35,0.6 c 0.647,0.847 0.555,2.074 -0.258,2.807 -0.024,0.051 -1.799,1.604 -1.845,1.644 l 0.037,0.088 -1.119,2.626 c -0.012,0.039 -0.868,2.044 -0.891,2.077 -0.087,0.37 -0.263,0.712 -0.526,0.938 l -91.753,78.903 c -0.105,0.092 -5.479,4.623 -5.604,4.594 -0.014,-0.004 -0.619,0.504 -0.632,0.499 -0.624,0.494 -1.421,0.246 -2.105,-0.206 -6.585,-4.363 -3.875,-2.077 -7.91,-8.642 -0.431,-0.696 -0.496,-1.55 0.063,-2.087 -10e-4,-0.001 0.052,-0.049 0.052,-0.05 0,0 0.01,-0.01 0.01,-0.01 -0.107,-0.138 7.236,-6.651 7.142,-6.805 -0.106,-0.175 8.187,-7.478 8.345,-7.614 l 0.032,-0.028 82.273,-70.448 c 0.107,-0.093 0.242,-0.182 0.367,-0.237 l -0.024,-0.033 5.549,-1.453 0.013,0.014 1.827,-1.58 c 0.787,-0.681 2.061,-0.675 2.736,0.095 l 0.429,0.482 1.938,-2.407 7.938,-8.345 1.477,-1.21 -0.454,-0.553 c -0.651,-0.813 -0.504,-2.054 0.333,-2.752 0.057,-0.021 2.631,-2.172 2.69,-2.168 l 4.166,-3.553 c -0.415,-0.52 -0.739,-1.117 -1.14,-1.648 l 0,0 c -1.271,-1.811 -2.417,-3.675 -3.438,-5.561 -0.065,-0.105 -0.114,-0.224 -0.178,-0.329 -7,-11.597 -10.64,-25.133 -9.881,-39.382 V 97.96 97.959 l 0,0 c 1.056,-19.678 10.33,-37.099 24.667,-49.348 z" />
          <path
             style="opacity:0.02999998"
             inkscape:connector-curvature="0"
             id="path71"
             d="M 258.15,55.459 C 245.457,42.131 227.408,33.352 207.015,32.275 h -0.027 -0.002 V 32.273 C 186.609,31.206 167.75,38.038 153.73,49.949 139.716,61.855 130.541,78.841 129.525,98.08 v 0.028 l 0,0 h -0.002 c -1.006,19.226 6.33,37.069 19.008,50.378 12.695,13.326 30.744,22.107 51.137,23.184 20.389,1.074 39.26,-5.758 53.285,-17.675 14.014,-11.907 23.189,-28.892 24.205,-48.132 1.013,-19.235 -6.325,-37.09 -19.008,-50.404 z M 207.123,30.866 c 20.752,1.103 39.123,10.046 52.051,23.616 12.943,13.588 20.432,31.815 19.395,51.46 -1.037,19.643 -10.4,36.979 -24.701,49.13 -14.289,12.142 -33.512,19.103 -54.279,18.008 -19.195,-1.014 -36.355,-8.736 -49.057,-20.624 -1.818,1.839 -3.764,3.657 -5.84,5.454 -0.828,0.715 -2.1,0.631 -2.805,-0.203 l -0.486,-0.574 -3.859,3.339 -10.447,8.988 0.455,0.554 c 0.684,0.83 0.602,2.063 -0.225,2.778 l -1.826,1.581 0.061,0.074 -1.994,4.68 c -0.07,0.357 -0.23,0.688 -0.479,0.899 l -96.749,83.173 -0.62,0.537 c -0.615,0.533 -1.413,0.292 -2.095,-0.159 -6.728,-4.457 -3.726,-1.91 -7.825,-8.64 -0.426,-0.699 -0.469,-1.564 0.144,-2.096 l 0.057,-0.049 0.011,-0.01 98.494,-84.291 c 0.113,-0.098 0.238,-0.176 0.369,-0.234 l -0.025,-0.035 5.592,-1.322 0.014,0.014 1.82,-1.574 c 0.826,-0.715 2.072,-0.629 2.781,0.179 l 0.473,0.537 9.859,-11.005 1.438,-1.244 -0.5,-0.561 c -0.729,-0.815 -0.623,-2.09 0.203,-2.805 l 6.789,-5.786 c -10.34,-12.942 -16.119,-29.241 -15.199,-46.653 v -0.027 -10e-4 l 0,0 c 1.045,-19.631 10.406,-36.957 24.699,-49.103 14.291,-12.14 33.514,-19.102 54.279,-18.006 h 0.027 l 0,0.001 0,0 0,0 z" />
        </g>
      </g>
      <path
         style="fill:#808080;fill-rule:evenodd"
         inkscape:connector-curvature="0"
         id="path73"
         d="m 133.607,26.497 c 26.174,-29.815 73.396,-33.793 105.475,-8.885 16.75,13.008 26.053,31.321 27.395,50.097 C 263.553,51.477 254.604,36.063 239.969,24.7 207.892,-0.209 160.669,3.77 134.496,33.584 121.988,47.83 116.555,65.397 117.783,82.575 c -3.487,-19.349 1.59,-39.864 15.824,-56.078 z"
         clip-rule="evenodd" />
      <path
         style="fill:url(#SVGID_3_);fill-rule:evenodd"
         inkscape:connector-curvature="0"
         id="path90"
         d="M 132.935,31.467 C 159.111,1.65 206.333,-2.326 238.41,22.582 c 32.077,24.908 36.861,69.271 10.686,99.087 -26.175,29.816 -73.398,33.793 -105.475,8.885 -32.077,-24.909 -36.862,-69.273 -10.686,-99.087 z"
         clip-rule="evenodd" />
      <polygon
         style="fill:#4d4d4d;fill-rule:evenodd"
         id="polygon92"
         points="241.445,128.736 225.507,139.424 211.257,144.486 195.132,146.174 174.882,145.236 156.32,138.674 140.945,130.049 128.757,115.986 120.882,102.674 117.132,90.486 117.507,87.674 127.445,107.361 140.57,122.924 152.945,132.674 165.896,137.701 175.82,140.549 188.195,142.259 199.632,141.674 217.07,138.299 232.257,131.174 246.882,120.111 256.632,108.299 251.945,118.424 "
         clip-rule="evenodd" />
      <path
         style="fill:#666666;fill-rule:evenodd"
         inkscape:connector-curvature="0"
         id="path94"
         d="m 265.041,86.75 c -1.299,13.484 -6.762,26.717 -16.582,37.901 -26.174,29.815 -73.396,33.793 -105.473,8.884 -21.527,-16.715 -30.762,-42.191 -26.596,-66.154 -2.164,22.461 7.223,45.621 27.266,61.186 32.076,24.909 79.299,20.932 105.475,-8.885 8.609,-9.807 13.869,-21.188 15.91,-32.932 z"
         clip-rule="evenodd" />
      <path
         style="fill:url(#SVGID_4_)"
         inkscape:connector-curvature="0"
         id="path103"
         d="M 132.392,25.77 C 145.738,10.569 164.439,1.947 183.89,0.293 c 19.453,-1.652 39.65,3.666 55.979,16.346 16.329,12.68 25.703,30.326 27.658,48.604 1.955,18.275 -3.506,37.178 -16.852,52.379 -13.344,15.199 -32.047,23.822 -51.496,25.475 -19.455,1.654 -39.652,-3.664 -55.98,-16.344 -16.328,-12.68 -25.703,-30.326 -27.658,-48.605 -1.956,-18.275 3.507,-37.178 16.851,-52.378 l 0,0 z M 184.181,2.934 c -18.727,1.592 -36.738,9.897 -49.594,24.54 -12.855,14.644 -18.117,32.849 -16.236,50.444 1.883,17.592 10.912,34.58 26.639,46.793 15.729,12.214 35.174,17.336 53.896,15.745 18.729,-1.591 36.738,-9.897 49.594,-24.54 12.856,-14.643 18.119,-32.848 16.236,-50.443 C 262.833,47.88 253.806,30.893 238.077,18.679 222.349,6.466 202.906,1.344 184.181,2.934 z" />
      <polygon
         style="fill:url(#SVGID_5_);fill-rule:evenodd"
         id="polygon120"
         points="131.968,123.309 106.08,150.406 117.33,161.155 143.218,134.057 "
         clip-rule="evenodd" />
      <path
         style="fill:#4d4d4d;fill-rule:evenodd"
         inkscape:connector-curvature="0"
         id="path122"
         d="m 129.677,125.705 -4.463,4.672 c 0.891,0.394 1.99,1.102 3.338,2.282 3.408,2.983 4.986,7.622 5.699,10.785 l 5.934,-6.212 -10.508,-11.527 z"
         clip-rule="evenodd" />
      <path
         style="fill:url(#SVGID_6_);fill-rule:evenodd"
         inkscape:connector-curvature="0"
         id="path139"
         d="m 121.339,157.996 c -3.938,-4.416 -7.959,-8.564 -12.287,-11.738 -0.867,-0.635 -0.795,-1.996 -0.041,-2.787 l 2.25,-2.355 c 0.756,-0.79 2.004,-0.822 2.787,-0.086 4.385,4.122 8.555,7.977 12.287,11.738 0.756,0.763 0.795,1.996 0.039,2.787 l -2.248,2.354 c -0.755,0.79 -2.072,0.89 -2.787,0.087 z"
         clip-rule="evenodd" />
      <path
         style="fill:url(#SVGID_7_);fill-rule:evenodd"
         inkscape:connector-curvature="0"
         id="path152"
         d="m 122.779,160.75 c -7.131,-5.224 -12.391,-10.318 -16.852,-15.799 -0.594,-0.566 -1.541,-0.546 -2.101,0.04 l -93.041,97.392 c -0.561,0.586 -0.435,1.444 0.056,2.1 4.72,6.311 9.74,12.31 16.86,16.107 0.722,0.385 1.538,0.549 2.1,-0.04 l 93.042,-97.392 c 0.561,-0.588 0.528,-1.842 -0.064,-2.408 z"
         clip-rule="evenodd" />
      <path
         style="fill-rule:evenodd"
         inkscape:connector-curvature="0"
         id="path154"
         d="m 11.336,241.806 -0.612,0.642 c -0.561,0.586 -0.435,1.444 0.057,2.1 4.72,6.311 9.739,12.31 16.86,16.107 0.722,0.385 1.537,0.548 2.1,-0.041 l 0.612,-0.641 c -0.562,0.588 -1.378,0.425 -2.1,0.039 -7.12,-3.797 -12.141,-9.797 -16.86,-16.106 -0.491,-0.656 -0.617,-1.513 -0.057,-2.1 z"
         clip-rule="evenodd" />
      <path
         style="fill:url(#SVGID_8_);fill-rule:evenodd"
         inkscape:connector-curvature="0"
         id="path161"
         d="m 104.144,144.69 c 4.553,5.115 11.811,12.022 18.895,18.142 l 1.736,-5.462 c -5.021,-5.103 -9.996,-9.601 -15.189,-14.527 l -5.442,1.847 z"
         clip-rule="evenodd" />
      <path
         style="fill:url(#SVGID_9_);fill-rule:evenodd"
         inkscape:connector-curvature="0"
         id="path178"
         d="m 138.314,140.279 c -4.438,-4.335 -8.525,-8.264 -12.338,-11.787 -0.803,-0.742 -0.82,-2.021 -0.064,-2.811 l 5.277,-5.525 c 0.756,-0.79 1.938,-0.721 2.811,-0.063 4.643,3.493 8.721,7.444 12.338,11.787 0.701,0.841 0.82,2.021 0.064,2.811 l -5.277,5.524 c -0.756,0.791 -2.03,0.828 -2.811,0.064 z"
         clip-rule="evenodd" />
      <rect
         style="fill:#666666;fill-rule:evenodd"
         id="rect180"
         height="11.083"
         width="0.66500002"
         clip-rule="evenodd"
         transform="matrix(-0.7224,-0.6915,0.6915,-0.7224,137.6123,303.4532)"
         y="118.559"
         x="129.392" />
      <rect
         style="fill:#666666;fill-rule:evenodd"
         id="rect182"
         height="11.124"
         width="0.667"
         clip-rule="evenodd"
         transform="matrix(0.7238,0.6901,-0.6901,0.7238,133.2591,-60.6862)"
         y="130.535"
         x="142.093" />
      <rect
         style="fill:#666666;fill-rule:evenodd"
         id="rect184"
         height="11.245"
         width="0.66500002"
         clip-rule="evenodd"
         transform="matrix(-0.7224,-0.6915,0.6915,-0.7224,139.3272,306.5031)"
         y="119.659"
         x="130.86099" />
      <rect
         style="fill:#666666;fill-rule:evenodd"
         id="rect186"
         height="11.245"
         width="0.66399997"
         clip-rule="evenodd"
         transform="matrix(0.7231,0.6908,-0.6908,0.7231,132.1583,-60.157)"
         y="129.133"
         x="140.778" />
      <rect
         style="fill:#666666;fill-rule:evenodd"
         id="rect188"
         height="11.446"
         width="0.66500002"
         clip-rule="evenodd"
         transform="matrix(-0.7224,-0.6915,0.6915,-0.7224,141.3509,310.506)"
         y="121.154"
         x="132.677" />
      <rect
         style="fill:#666666;fill-rule:evenodd"
         id="rect190"
         height="11.446"
         width="0.66399997"
         clip-rule="evenodd"
         transform="matrix(0.7231,0.6908,-0.6908,0.7231,130.4909,-59.481)"
         y="127.291"
         x="139.101" />
      <rect
         style="fill:#666666;fill-rule:evenodd"
         id="rect192"
         height="11.567"
         width="0.66399997"
         clip-rule="evenodd"
         transform="matrix(-0.7231,-0.6908,0.6908,-0.7231,143.9151,315.4371)"
         y="123.089"
         x="134.85201" />
      <rect
         style="fill:#666666;fill-rule:evenodd"
         id="rect194"
         height="11.607"
         width="0.66500002"
         clip-rule="evenodd"
         transform="matrix(-0.7224,-0.6915,0.6915,-0.7224,146.0178,320.4179)"
         y="125.093"
         x="137" />
      <path
         style="fill:url(#SVGID_10_);fill-rule:evenodd"
         inkscape:connector-curvature="0"
         id="path203"
         d="M 137.611,106.926 C 123.672,92.244 120.84,66.965 132.183,44.433 144.898,19.18 170.986,6.172 192.792,13.136 c -19.467,3.815 -38.289,18.114 -49.154,39.696 -9.121,18.119 -10.775,37.684 -6.027,54.094 z"
         clip-rule="evenodd" />
      <path
         style="fill:url(#radialGradient3476)"
         inkscape:connector-curvature="0"
         id="path212"
         d="m 238.573,28.146 c 23.819,26.031 21.568,66.862 -5.03,91.201 -13.151,12.034 -29.79,17.771 -46.135,17.362 17.884,2.077 36.692,-3.416 51.194,-16.687 26.19,-23.966 28.407,-64.173 4.954,-89.804 -6.744,-7.369 -14.878,-12.72 -23.664,-16.049 6.869,3.362 13.225,8.015 18.681,13.977 z" />
    </g>
  </g>
</svg>
